<?xml version="1.0" standalone="no"?>
<!DOCTYPE svg PUBLIC "-//W3C//DTD SVG 1.1//EN" "http://www.w3.org/Graphics/SVG/1.1/DTD/svg11.dtd" >
<svg>
<metadata>
Created by FontForge 20090622 at Wed Jul 18 23:55:13 2018
 By deploy user
Copyright (c) 1991-1993 Kivun Computers Ltd. All Rights Reserved.
</metadata>
<defs>
<font id="Vilna-Regular" horiz-adv-x="277" >
  <font-face 
    font-family="Vilna"
    font-weight="5"
    font-stretch="normal"
    units-per-em="1000"
    panose-1="0 0 0 0 0 0 0 0 0 0"
    ascent="800"
    descent="-200"
    bbox="-94 -253 930 800"
    underline-thickness="49"
    underline-position="-85"
    unicode-range="U+F000-U+F0FE"
  />
<missing-glyph horiz-adv-x="800" 
d="M50 0v800h700v-800h-700zM700 50v700h-600v-700h600z" />
    <glyph glyph-name=".notdef" horiz-adv-x="800" 
d="M50 0v800h700v-800h-700zM700 50v700h-600v-700h600z" />
    <glyph glyph-name=".null" unicode="&#xf000;" horiz-adv-x="0" 
 />
    <glyph glyph-name=".null" unicode="&#xf01d;" horiz-adv-x="0" 
 />
    <glyph glyph-name=".null" unicode="&#xf008;" horiz-adv-x="0" 
 />
    <glyph glyph-name="nonmarkingreturn" unicode="&#xf009;" horiz-adv-x="208" 
 />
    <glyph glyph-name="nonmarkingreturn" unicode="&#xf01e;" horiz-adv-x="208" 
 />
    <glyph glyph-name="nonmarkingreturn" unicode="&#xf00d;" horiz-adv-x="208" 
 />
    <glyph glyph-name="space" unicode="&#xf020;" horiz-adv-x="208" 
 />
    <glyph glyph-name="exclam" unicode="&#xf021;" 
d="M158 423q0 -36 -15.5 -88l-24 -81t-11 -43t-2.5 -38q0 -15 -16 -15q-8 0 -10.5 8t-2.5 18q-3 28 -8 51.5t-14 51.5l-7 24q-9 25 -15 53t-6 54q0 50 19 79t48 29q33 0 49 -34t16 -69zM150 65q-2 -8 -10.5 -19l-37.5 -48q-8 -12 -16 -7q-7 4 -32 35.5t-25 38.5q0 8 17 29.5
t32 37.5q5 8 13 6l20.5 -23.5l25.5 -29.5t13 -20z" />
    <glyph glyph-name="quotedbl" unicode="&#xf022;" horiz-adv-x="304" 
d="M142 567l-60 -191l-2 -9l-17 -51h-42l50 251h71zM261 566l-62 -199l-15 -52h-43l51 251h69z" />
    <glyph glyph-name="numbersign" unicode="&#xf023;" horiz-adv-x="415" 
d="M407 330h-90l-14 -104h84v-51h-90l-26 -175h-51l25 175h-110l-25 -175h-52l26 175h-84v51h97l13 104h-90v51h96l26 161h52l-26 -161h103l26 161h51l-25 -161h84v-51zM265 330h-103l-14 -104h104z" />
    <glyph glyph-name="dollar" unicode="&#xf024;" horiz-adv-x="415" 
d="M360 156q0 -88 -52.5 -128.5t-107.5 -40.5v-51q0 -23 -15 -23q-9 0 -12.5 6.5t-3.5 18.5v49q-37 0 -75 16.5t-54.5 36t-20 34.5t-3.5 39q3 21 21.5 42.5t52.5 21.5q13 0 13 -13l-5 -51q0 -33 14.5 -63.5t57.5 -35.5v203q-63 16 -105 51t-42 97q0 64 41 110t107 46v39
q0 22 15 22q14 0 14 -14v-47q59 0 102 -26.5t43 -64.5q0 -27 -20 -46t-49 -19l-12 1q-7 2 -5 9q7 19 7 41q0 36 -20 58t-46 22v-178q73 -23 116.5 -55.5t43.5 -106.5zM170 332v165q-29 -3 -50.5 -26.5t-21.5 -56.5q0 -36 21.5 -54t50.5 -28zM280 109q0 44 -25.5 66t-54.5 30
v-191q33 0 56.5 27.5t23.5 67.5z" />
    <glyph glyph-name="percent" unicode="&#xf025;" horiz-adv-x="581" 
d="M240 409q0 -78 -24 -120t-75 -42q-48 0 -72.5 40.5t-24.5 116.5q0 78 26 120t67 42q54 0 78.5 -41.5t24.5 -115.5zM436 556q0 -5 -10 -25l-179 -362l-7 -15l-67 -134q-13 -25 -17 -30t-12 -5l-10 2t-5 6q0 6 5 15.5t7 12.5l261 525q12 18 19 18l10 -2t5 -6zM525 154
q0 -83 -26.5 -124t-70.5 -41q-39 0 -70 36.5t-31 127.5q0 68 25.5 113t75.5 45q54 0 75.5 -50t21.5 -107zM189 424q0 57 -8.5 88t-36.5 31q-27 0 -38 -29.5t-11 -111.5q0 -73 9.5 -102.5t36.5 -29.5q10 0 16.5 4t15 12.5t12.5 51.5t4 86zM473 154q0 82 -10.5 107t-39.5 25
q-28 0 -35.5 -35t-7.5 -109q0 -69 9.5 -98t37.5 -29q30 0 38 36t8 103z" />
    <glyph glyph-name="ampersand" unicode="&#xf026;" horiz-adv-x="640" 
d="M620 84q-35 -52 -70 -74t-69 -22q-39 0 -70.5 23.5t-55.5 53.5q-35 -32 -86 -52t-103 -20q-63 0 -102 32.5t-39 103.5q0 76 90 141l72 47q-13 34 -20.5 65.5t-7.5 57.5q0 20 3.5 34.5t18.5 37t47 40t65 17.5q44 0 75.5 -30.5t31.5 -86.5q-4 -44 -39 -79t-83 -56l103 -169
l64 97q5 7 10 21.5t5 27.5q0 19 -11.5 31.5t-41.5 16.5v13h174v-13q-19 -7 -38.5 -15t-32.5 -30l-103 -168q-7 -15 34.5 -45.5t82.5 -30.5q24 0 42.5 10t33.5 34zM355 458q2 14 2 21q0 27 -15.5 41.5t-38.5 14.5q-30 0 -53.5 -22.5t-23.5 -60.5q0 -33 11 -61q15 -30 21 -43
q45 27 66.5 47.5t30.5 62.5zM330 90l-130 194q-42 -27 -65.5 -62.5t-23.5 -71.5q0 -20 5 -34q6 -32 33.5 -54.5t66.5 -22.5q27 0 55 11.5t59 39.5z" />
    <glyph glyph-name="quotesingle" unicode="&#xf027;" horiz-adv-x="166" 
d="M135 568l-75 -242l-5 -11h-41l51 253h70z" />
    <glyph glyph-name="parenleft" unicode="&#xf028;" 
d="M216 580l-4 -8l-10 -11q-49 -49 -76 -132t-27 -185q0 -85 15.5 -154.5t51.5 -129.5l36 -46t13 -20q-1 -4 -3 -8t-8 -4q-62 0 -118.5 110.5t-56.5 247.5q0 132 57.5 242t118.5 110q11 0 11 -12z" />
    <glyph glyph-name="parenright" unicode="&#xf029;" 
d="M229 238q0 -130 -32.5 -195.5t-84.5 -120.5q-22 -20 -33.5 -29.5t-23.5 -9.5q-13 0 -13 13q2 8 32 35.5t57 111.5t27 191q0 105 -25 189t-58 118t-33 41q0 10 10 10q21 0 63.5 -39t78 -119.5t35.5 -195.5z" />
    <glyph glyph-name="asterisk" unicode="&#xf02a;" horiz-adv-x="332" 
d="M289 384q0 -13 -10.5 -25.5t-27.5 -12.5q-16 0 -23.5 6.5t-14.5 19.5q-9 28 -19.5 39t-29.5 15l-2 -18q0 -21 6 -31.5t14 -16.5q13 -13 13 -30t-11.5 -27.5t-34.5 -10.5q-10 0 -20.5 10.5t-10.5 25.5t11.5 31t15.5 23.5t4 17.5l-1 28q-22 -11 -32 -21t-13.5 -23.5
t-13.5 -25t-25 -11.5q-18 0 -29.5 10.5t-11.5 26.5q0 21 12.5 31t27.5 10l30 -5q10 0 20.5 4t28.5 16q-13 9 -25 15t-23 6l-29 -4q-22 0 -31.5 14t-9.5 26q0 16 11.5 26.5t28.5 10.5q15 0 24 -9t13.5 -27t19 -29.5t28.5 -15.5l1 20q0 12 -1.5 18.5t-7.5 16.5q-16 16 -20 24
t-4 19q0 16 10 26t26 10q22 0 31.5 -11t9.5 -27t-10.5 -26.5t-15.5 -22t-5 -23.5l2 -24q25 11 34 21t13 24q0 9 11 22t26 13q16 0 27.5 -10.5t11.5 -28.5q0 -11 -9.5 -24t-27.5 -13l-32 4q-14 0 -22 -4t-26 -17q12 -10 23 -16t26 -6l32 5q13 0 25 -11t12 -28z" />
    <glyph glyph-name="plus" unicode="&#xf02b;" horiz-adv-x="609" 
d="M544 201h-210v-215h-52v215h-209v54h207v217h54v-217h210v-54z" />
    <glyph glyph-name="comma" unicode="&#xf02c;" horiz-adv-x="194" 
d="M152 122l-59 -122l-60 -120h-35l47 242h107z" />
    <glyph glyph-name="hyphen" unicode="&#xf02d;" 
d="M240 303l-7 -23l-27 -70q-3 -7 -7.5 -8.5t-14.5 -1.5h-147q-17 0 -19 7l1 6l33 93q3 9 24 9h140q14 0 19 -1.5t5 -10.5z" />
    <glyph glyph-name="period" unicode="&#xf02e;" horiz-adv-x="166" 
d="M119 71q0 -7 -4 -12l-20 -29l-7 -10q-8 -13 -15 -21t-10 -8q-10 0 -15 10q-16 21 -29.5 41.5t-13.5 28.5q0 7 23.5 44.5t31.5 37.5t16 -10q4 -8 11 -17.5t19.5 -29t12.5 -25.5z" />
    <glyph glyph-name="slash" unicode="&#xf02f;" horiz-adv-x="360" 
d="M333 526l-3 -10l-235 -433l-38 -71q-14 -19 -18.5 -22.5t-14.5 -3.5q-16 0 -16 14q0 2 8 19t11 22l255 468l8 13q8 13 23 13q20 0 20 -9z" />
    <glyph glyph-name="zero" unicode="&#xf030;" horiz-adv-x="415" 
d="M368 268q0 -137 -45.5 -209.5t-124.5 -72.5q-66 0 -118.5 60.5t-52.5 196.5q0 149 51 213.5t121 64.5q68 0 118.5 -67.5t50.5 -185.5zM276 267q0 118 -15.5 166t-61.5 48q-27 0 -43.5 -16.5t-22 -38.5t-9.5 -76.5t-4 -99.5q0 -121 16 -172.5t60 -51.5t60 38.5t16 105.5
q4 43 4 97z" />
    <glyph glyph-name="one" unicode="&#xf031;" horiz-adv-x="415" 
d="M326 12q0 -8 -10 -10t-37 -2h-152q-27 0 -34 2.5t-7 11.5q0 10 9.5 14.5t33 9.5t28 13.5t8.5 36.5v318l-39 -22q-16 -9 -24 -12.5t-12 -3.5t-9 4t-5 7q0 10 8 18l47 39q25 21 45 40.5l29 28.5q13 10 25 10q13 0 19.5 -6.5t6.5 -22.5v-380q0 -40 5 -52.5t30 -21.5
q35 -8 35 -20z" />
    <glyph glyph-name="two" unicode="&#xf032;" horiz-adv-x="415" 
d="M356 110q0 -34 -23.5 -73t-86.5 -39q-14 0 -27.5 2t-48.5 9.5t-63 7.5q-18 0 -28 -7t-14.5 -8.5l-7.5 -2.5q-10 0 -13.5 10t-3.5 23q0 47 29.5 95.5t85.5 94.5l40 34q33 30 50 55.5t17 69.5q0 48 -25 75t-63 27q-35 0 -51 -16t-16 -35q0 -13 5.5 -19.5t13.5 -8.5
q21 -11 30.5 -20.5t9.5 -30.5q0 -22 -14.5 -37.5t-39.5 -15.5q-26 0 -50 26t-24 65q0 53 41.5 92.5t116.5 39.5q84 0 121.5 -44.5t37.5 -98.5q0 -63 -41 -106t-105.5 -82t-82.5 -55t-24 -39q15 0 76 -6.5t62 -6.5q31 0 52.5 6.5t33.5 19t17 12.5q13 0 13 -13z" />
    <glyph glyph-name="three" unicode="&#xf033;" horiz-adv-x="415" 
d="M352 146q0 -45 -22.5 -84t-50 -53t-49.5 -20t-51 -6q-64 0 -105.5 29t-41.5 74q0 24 16 40t41 16q28 0 41.5 -17t13.5 -38q0 -17 -7 -31l-5 -15q4 -6 12.5 -12.5t26.5 -6.5q50 0 68 38.5t18 80.5q0 37 -13.5 66.5t-47.5 39.5l-55 8q-20 0 -26.5 4t-6.5 18q0 9 11.5 12
t21.5 3q53 0 79 24t26 78q0 41 -17.5 66t-52.5 25q-14 0 -24.5 -5.5t-10.5 -17.5q3 -11 5.5 -13t7.5 -11t5 -24q0 -25 -18.5 -40.5t-38.5 -15.5t-38 16t-18 42q0 37 38 72t102 35q67 0 108.5 -37t41.5 -93q0 -38 -26.5 -67t-76.5 -48q38 -2 78.5 -35.5t40.5 -96.5z" />
    <glyph glyph-name="four" unicode="&#xf034;" horiz-adv-x="415" 
d="M366 197q0 -6 -4 -32t-7.5 -36.5t-20.5 -10.5h-41v-54q0 -16 5.5 -23t24 -13t18.5 -17q-2 -6 -8 -8.5t-24 -2.5h-117h-12q-19 0 -25 2.5t-6 12.5q0 3 4.5 6.5t21 8.5t23 14t6.5 37v37h-136q-25 0 -35 2.5t-10 14.5q0 4 20.5 41t54 122t43.5 183q0 15 6 19t27 4h61
q9 -3 7 -13q0 -29 -40 -126.5t-115 -202.5h117v137l28.5 41l28 38.5t21.5 16.5q10 0 10 -16v-217q15 0 28 9.5t17.5 18t8 14.5t9.5 5q11 0 11 -12z" />
    <glyph glyph-name="five" unicode="&#xf035;" horiz-adv-x="415" 
d="M352 174q0 -44 -16.5 -86.5t-47 -65t-58.5 -30t-52 -7.5q-64 0 -103 27.5t-39 67.5q0 11 8.5 34t44.5 23q25 0 38.5 -15.5t13.5 -35.5q0 -3 -4 -19t-4 -19q0 -12 13 -18.5t29 -6.5q41 0 61 35t20 104q0 54 -12 92.5t-59 38.5q-25 0 -42.5 -14t-31.5 -36
q-2 -7 -10.5 -14.5t-14.5 -7.5q-20 0 -20 20l1 32l8 119l5 90q0 20 14.5 26t33.5 6q8 0 56 -6t58 -6q22 0 34 1t36 6l9 1q13 0 13 -16q0 -17 -13.5 -37t-38.5 -28t-61 -10.5t-74 -2.5h-27l-6 -112q21 15 45 24t52 9q60 0 100.5 -46.5t40.5 -116.5z" />
    <glyph glyph-name="six" unicode="&#xf036;" horiz-adv-x="415" 
d="M366 159q0 -37 -14 -74q-17 -40 -53 -71t-93 -31q-44 0 -75.5 20.5t-53 50.5t-30.5 69t-9 101q0 137 46.5 218t139.5 81q52 0 82 -22.5t30 -53.5q0 -20 -13.5 -36t-41.5 -16q-21 0 -35.5 18.5t-14.5 43.5q0 7 -5 16.5t-27 9.5q-16 0 -28 -9t-16 -24q-14 -37 -19.5 -81.5
t-5.5 -92.5q18 16 41.5 26t54.5 10q54 0 97 -41t43 -112zM275 145q0 54 -14 91.5t-56 37.5q-46 0 -58.5 -36t-12.5 -85q0 -68 16.5 -99.5t52.5 -31.5q46 0 59 40.5t13 82.5z" />
    <glyph glyph-name="seven" unicode="&#xf037;" horiz-adv-x="415" 
d="M352 488l-1 -7l-65 -185q-26 -75 -37.5 -126t-11.5 -97l-1 -29q0 -23 -15 -38t-46 -15q-19 0 -35 11t-16 42q0 39 39 127t78 146l16 28q6 9 16.5 29.5t21.5 46.5h-156q-20 -2 -30.5 -10t-24.5 -33t-26 -23q-9 0 -10.5 8.5t-1.5 20.5q0 18 4.5 50t10 46.5t9.5 19t18 4.5
h220q18 0 31 -3t13 -13z" />
    <glyph glyph-name="eight" unicode="&#xf038;" horiz-adv-x="415" 
d="M357 142q0 -61 -27.5 -96.5t-67.5 -49.5l-15 -5q-4 -2 -21 -4t-28 -2q-87 0 -126.5 45t-39.5 99q0 38 22.5 75t64.5 65q-31 20 -48 52t-17 66q0 60 44 98t100 38q53 0 96 -36t43 -90q0 -35 -18.5 -63t-49.5 -49q36 -20 62 -58t26 -85zM268 394q0 38 -21 64t-54 26
q-27 0 -46.5 -17t-19.5 -50t29 -60t78 -49q18 18 26 41.5t8 44.5zM279 107q0 46 -35 78.5t-91 56.5q-17 -19 -29.5 -47t-12.5 -59q0 -48 26.5 -78.5t64.5 -30.5l16 1q34 11 47.5 33t13.5 46z" />
    <glyph glyph-name="nine" unicode="&#xf039;" horiz-adv-x="415" 
d="M357 283q0 -48 -6 -92t-22.5 -86.5t-35 -64t-40.5 -33t-41 -16t-38 -4.5q-57 0 -84.5 23t-27.5 54q0 28 16.5 42t36.5 14q25 0 39.5 -14.5t14.5 -37.5q0 -15 -7 -29q-2 -4 1.5 -10t23.5 -6q23 0 37 16t20 34.5t13 60.5t7 94q-19 -16 -44 -25.5t-52 -9.5
q-64 0 -102.5 44.5t-38.5 113.5q0 76 44 124t113 48q85 0 129 -66t44 -174zM258 358q0 62 -17 93.5t-52 31.5q-36 0 -53.5 -31.5t-17.5 -96.5q0 -63 18 -93.5t56 -30.5q19 0 32 10.5t21 27.5t10.5 34t2.5 55z" />
    <glyph glyph-name="colon" unicode="&#xf03a;" horiz-adv-x="249" 
d="M138 410q4 -7 -1 -16.5t-24 -38t-25 -34.5t-12 1q-19 21 -35.5 46.5t-16.5 34.5q-1 7 3.5 14.5t21 30.5t23.5 30.5t12 6.5q6 1 27.5 -31.5t26.5 -43.5zM140 67q-1 -4 -19 -30t-35 -46q-7 -7 -20.5 12l-28 41t-14.5 30q0 6 24.5 41.5t29.5 36.5t14 -9t29.5 -40t19.5 -36z
" />
    <glyph glyph-name="semicolon" unicode="&#xf03b;" horiz-adv-x="249" 
d="M159 405q1 -5 -12 -24l-26 -38.5t-18 -19.5q-4 0 -9 5l-44 63q-5 5 -5 13q0 7 4 12l44 62q7 8 11 8t29.5 -37.5t25.5 -43.5zM163 121l-120 -241h-35l49 241h106z" />
    <glyph glyph-name="less" unicode="&#xf03c;" horiz-adv-x="443" 
d="M373 395l-220 -165l219 -169v-69l-305 240l306 229v-66z" />
    <glyph glyph-name="equal" unicode="&#xf03d;" horiz-adv-x="609" 
d="M547 272h-479v57h479v-57zM547 132h-479v56h479v-56z" />
    <glyph glyph-name="greater" unicode="&#xf03e;" horiz-adv-x="443" 
d="M388 230l-148 -114l-19 -16l-138 -106v69l217 167l-221 165l2 66z" />
    <glyph glyph-name="question" unicode="&#xf03f;" horiz-adv-x="415" 
d="M332 409q0 -26 -16.5 -55.5t-46.5 -49.5l-64 -43q-21 -11 -36 -31.5t-15 -43.5l2 -22l-7 -5q-11 0 -23 16.5t-12 39.5q0 27 16.5 56t48.5 66q26 34 40 55t14 53q0 27 -13 42t-36 15q-32 0 -54 -30t-22 -74l5 -39q0 -13 -12 -13q-27 0 -56.5 21.5t-29.5 58.5
q0 45 49.5 73.5t108.5 28.5q75 0 117 -33t42 -86zM215 67q0 -9 -12 -26l-33 -41l-5 -5l-10 -3q-9 0 -35 33t-26 41q0 5 26.5 37.5t32.5 32.5t13.5 -8.5l18.5 -21.5l22 -26q3 -3 5.5 -6t2.5 -7z" />
    <glyph glyph-name="at" unicode="&#xf040;" horiz-adv-x="755" 
d="M720 239q0 -39 -52 -119.5t-126 -80.5q-26 0 -52 8t-51 50q-21 -29 -51.5 -44.5t-63.5 -15.5q-39 0 -66.5 21t-30.5 46t-3.5 34.5t-0.5 18.5q0 62 20.5 103.5t45 71.5t54 45.5t61.5 15.5q26 0 47 -11.5t39 -39.5l7 39h71l-65 -278q18 -28 45 -28q45 0 87.5 65t42.5 150
q-14 105 -87 167t-165 62q-16 0 -74 -5.5t-130.5 -71t-90.5 -144.5t-18 -114q0 -119 87.5 -193t210.5 -74q48 0 94 12.5t89 38.5l13 -33q-114 -57 -224 -57q-76 0 -142 28.5t-112.5 79t-68 105.5t-21.5 113q0 117 66.5 197t145.5 123t188 43q143 0 213 -96t70 -204
q0 -7 -1 -15.5t-1 -12.5zM465 226q7 32 7 58q0 63 -46 71q-23 0 -57.5 -33t-50 -77t-15.5 -84q0 -38 11.5 -61t33.5 -23q50 9 78.5 48t38.5 101z" />
    <glyph glyph-name="B" unicode="&#xf042;" horiz-adv-x="221" 
d="M134 549q0 -30 -34 -35q-17 0 -27.5 9.5t-10.5 23.5q0 38 38 38q11 0 22.5 -9.5t11.5 -26.5zM171 60q0 -37 -11.5 -50t-20.5 -13q-8 0 -11 9t-3 34v17l3 246q0 11 -5.5 18.5t-42.5 22t-55.5 34t-18.5 56.5q0 19 7.5 44.5t14.5 28.5q13 0 19 -13.5t16 -20t33.5 -15
t38.5 -20.5t17 -25.5t5 -62t3 -59.5l10 -197z" />
    <glyph glyph-name="C" unicode="&#xf043;" horiz-adv-x="387" 
d="M206 241q0 -38 -34 -38q-20 0 -29 11.5t-9 24.5q0 38 38 38q10 0 22 -10t12 -26zM359 -130q0 -25 -20 -51t-39 -26q-9 0 -10 9t-1 29v16l2 502h-231q-29 0 -47.5 11.5t-18.5 55.5q0 28 9 59.5t25 31.5q6 0 8 -6t2 -8q3 -16 15 -20t33 -4l186 1q45 0 64.5 -11.5
t19.5 -58.5q0 -22 -4.5 -34.5t-15.5 -19t-11 -23.5l2 -56l25 -301v-9l4 -48zM206 131q0 -17 -7.5 -27t-26.5 -10q-38 0 -38 36q0 37 36 37q13 0 24.5 -9t11.5 -27z" />
    <glyph glyph-name="E" unicode="&#xf045;" horiz-adv-x="387" 
d="M236 244h-66q0 -19 1.5 -24.5t9.5 -15.5q9 -8 11.5 -16.5t2.5 -14.5q0 -17 -10.5 -26.5t-25.5 -9.5q-36 0 -36 38q0 15 8.5 23t13 18t4.5 28h-62v45h149v-45zM359 -130q0 -25 -20 -51t-39 -26q-9 0 -10 9t-1 29v16l2 502h-231q-29 0 -47.5 11.5t-18.5 55.5q0 28 9 59.5
t25 31.5q6 0 8 -6t2 -8q3 -16 15 -20t33 -4l186 1q45 0 64.5 -11.5t19.5 -58.5q0 -22 -4.5 -34.5t-15.5 -19t-11 -23.5l2 -56l25 -301v-9l4 -48z" />
    <glyph glyph-name="G" unicode="&#xf047;" horiz-adv-x="360" 
d="M-21 548q0 -11 -9.5 -21.5t-26.5 -10.5q-16 0 -26.5 9.5t-10.5 24.5q0 18 11 28t27 10q13 0 24 -10t11 -30zM324 323q0 -59 -13 -92.5t-39 -56.5l-50 -44q-29 -28 -40.5 -51t-20.5 -50q-8 -35 -38 -35q-15 0 -25.5 7t-10.5 23q0 24 20.5 54.5t56.5 55.5q116 70 116 126
q0 25 -9 48.5t-24.5 29.5t-49.5 6h-132q-35 0 -47.5 15.5t-12.5 67.5q0 90 7 129.5t40 78.5q-8 11 -14 24t-6 21q0 16 18 35t33 19q7 1 19 -22.5t12 -37.5q0 -12 -9 -24l-26 -28q-19 -21 -26.5 -41t-7.5 -50q0 -38 12.5 -51.5t42.5 -13.5h62h64q52 -8 75 -40t23 -103z" />
    <glyph glyph-name="H" unicode="&#xf048;" horiz-adv-x="360" 
d="M-22 551q0 -11 -7 -21.5t-25 -10.5q-19 0 -27 10.5t-8 23.5q0 16 10 24.5t24 8.5t23.5 -9.5t9.5 -25.5zM324 324q0 -60 -13 -93t-39 -57l-50 -44q-29 -26 -42.5 -54t-20 -55t-36.5 -27q-15 0 -25.5 7t-10.5 23q0 24 20.5 54.5t56.5 55.5q71 43 93.5 65.5t22.5 61.5
q0 25 -9 48t-24.5 29t-49.5 6h-132q-35 0 -47.5 15.5t-12.5 67.5q0 90 7 129.5t40 78.5q-8 11 -14 24t-6 21q0 16 18 35t33 19q10 -1 20.5 -26.5t10.5 -33.5q0 -12 -9 -24l-26 -28q-19 -21 -26.5 -41t-7.5 -50q0 -39 12.5 -51.5t42.5 -12.5h62h61q52 -7 76.5 -40t24.5 -103z
M190 232q0 -13 -9 -23t-26 -10t-27.5 9.5t-10.5 26.5q0 37 36 37q15 0 26 -10t11 -30z" />
    <glyph glyph-name="L" unicode="&#xf04c;" horiz-adv-x="526" 
d="M505 547q-1 -9 -7 -18.5t-26 -9.5q-14 0 -24 9t-10 21q0 18 11.5 26t22.5 8q13 0 23 -10t10 -26zM498 386q0 -23 -13.5 -47t-44.5 -67.5t-58 -101t-39.5 -100.5t-23.5 -50.5t-75 -14.5t-165 -7h-7q-7 1 -8.5 4.5t-5.5 31l-7 48.5l-9 61q-1 7 -5 38.5t-4 46.5q0 59 28 111
q-55 28 -55 90q0 27 10.5 54t22.5 27q3 -2 6.5 -3.5t6.5 -9t10 -18t28 -19t35.5 -22.5t14.5 -46q0 -35 -16 -73l-40 10q-14 -39 -14 -80q0 -33 9.5 -69.5t25.5 -70.5l30 54t31 61l57 115q-17 14 -24.5 33t-7.5 43q0 20 6.5 40t17.5 37q4 16 20 16q2 2 5 -1t6 -15t6.5 -17
t19 -15.5t33 -30.5t17.5 -51q0 -19 -8.5 -39t-19.5 -38l-48 22l-107 -209q40 0 85.5 5t91.5 13q12 29 23 48t31 44l35 44q10 11 17.5 22.5t7.5 21.5q0 11 -8 16q-25 25 -36 44t-11 36q0 31 24 63.5t40 32.5q8 0 8 -17q0 -9 8 -21.5t19.5 -27.5t17.5 -26t6 -26z" />
    <glyph glyph-name="M" unicode="&#xf04d;" horiz-adv-x="526" 
d="M503 555q0 -32 -33 -35q-15 0 -24 11t-9 21q0 16 9.5 25.5t23.5 9.5q17 0 24 -9t9 -23zM498 386q0 -23 -13.5 -47t-44.5 -67.5t-58 -101t-39.5 -100.5t-23.5 -50.5t-75 -14.5t-165 -7h-8q-6 0 -8 6l-12 78l-9 61q-1 7 -5 38.5t-4 46.5q0 59 28 111q-55 28 -55 90
q0 27 10.5 54t22.5 27q3 -2 6.5 -3.5t6.5 -9t10 -18t28 -19t35.5 -22.5t14.5 -46q0 -35 -16 -73l-40 10q-14 -39 -14 -80q0 -33 9.5 -69.5t25.5 -70.5l30 54t31 61l57 115q-17 14 -24.5 33t-7.5 43q0 20 6.5 40t13.5 31t12 16.5t12 5.5t10.5 -14t7 -19t19 -15.5t33 -30.5
t17.5 -51q0 -19 -8.5 -39t-19.5 -38l-48 22l-107 -209q40 0 85.5 5t91.5 13q12 29 23 48t31 44l35 44q10 12 17.5 23t7.5 22t-8 16q-25 24 -36 43t-11 36q0 31 24 63.5t40 32.5q8 0 8 -17q0 -9 8 -21.5t19.5 -27.5t17.5 -26t6 -26zM314 224q0 -18 -10.5 -26t-25.5 -10
q-31 3 -36 33q-1 13 6 26t29 15q37 0 37 -38z" />
    <glyph glyph-name="N" unicode="&#xf04e;" horiz-adv-x="526" 
d="M106 556q-3 -33 -33 -33q-14 0 -23 9t-11 25q0 16 10.5 25.5t22.5 9.5q16 0 25 -11t9 -25zM500 385q0 -17 -9.5 -38.5t-35 -58t-57.5 -94.5t-48 -110l-17 -53q-8 -15 -13 -16l-51 -7q-86 -10 -187 -10h-7q-5 0 -9 6l-12 78l-9 61q-1 7 -5 38.5t-4 46.5q0 59 28 111
q-55 28 -55 90q0 27 10.5 54t22.5 27q3 -2 6.5 -3.5t6 -8.5t10 -18t28.5 -19.5t35.5 -22.5t14.5 -46q0 -15 -3.5 -31.5t-10.5 -36.5q-4 -4 -9 -4l-32 9q-7 -20 -11 -38t-4 -39q0 -69 36 -141q15 26 25.5 46l24.5 48l67 133q-32 29 -32 76q0 28 14 61t30 33q6 0 9 -7
q0 -21 24.5 -40t38 -36t13.5 -47q0 -19 -11 -47.5t-15 -28.5q-5 0 -20 7.5t-29 15.5l-105 -211q79 0 177 16q25 63 54.5 98t44.5 54.5t15 30.5q0 7 -6 13l-23 27q-15 15 -20.5 28.5t-5.5 26.5q0 33 23 65.5t36 32.5q12 0 12 -17q0 -14 19.5 -40.5t25 -35.5t5.5 -28z" />
    <glyph glyph-name="O" unicode="&#xf04f;" horiz-adv-x="526" 
d="M106 556q0 -17 -9.5 -25.5t-23.5 -8.5q-15 1 -24.5 11.5t-9.5 23.5q0 16 10.5 25.5t22.5 9.5q16 0 25 -11t9 -25zM500 385q0 -17 -9.5 -38.5t-35 -58t-57.5 -94.5t-48 -110l-17 -53q-8 -15 -13 -16l-51 -7q-86 -10 -187 -10h-8q-4 0 -8 6l-12 78l-9 61q-1 7 -5 38.5
t-4 46.5q0 59 28 111q-55 28 -55 90q0 27 10.5 54t22.5 27q3 -2 6.5 -3.5t6 -8.5t10 -18t28.5 -19.5t35.5 -22.5t14.5 -46q0 -15 -3.5 -31.5t-10.5 -36.5q-4 -4 -9 -4l-32 9q-7 -20 -11 -38t-4 -39q0 -69 36 -141q15 26 25.5 46l24.5 48l67 133q-32 29 -32 76q0 28 14 61
t30 33q4 0 6 -3t3 -4q0 -21 24.5 -40t38 -36t13.5 -47q0 -19 -11 -47.5t-15 -28.5q-5 0 -20 7.5t-29 15.5l-105 -211q79 0 177 16q25 63 54.5 98t44.5 54.5t15 30.5q0 7 -6 13l-23 27q-15 15 -20.5 28.5t-5.5 26.5q0 33 23 65.5t36 32.5q12 0 12 -17q0 -14 19.5 -40.5
t25 -35.5t5.5 -28zM314 226q-3 -36 -37 -36q-18 0 -26 9.5t-10 23.5q0 15 8.5 26t25.5 13q15 0 25.5 -8t13.5 -28z" />
    <glyph glyph-name="Y" unicode="&#xf059;" horiz-adv-x="498" 
d="M439 247q0 -19 -16.5 -22t-28.5 -3h-313q-15 0 -26 5.5t-12 19.5q0 16 10.5 20t35.5 4h313q19 0 28 -4.5t9 -19.5z" />
    <glyph glyph-name="Z" unicode="&#xf05a;" horiz-adv-x="996" 
d="M930 249q0 -14 -9.5 -20.5t-23.5 -6.5h-823q-14 0 -24.5 4.5t-10.5 20.5q1 15 11.5 20.5t26.5 5.5h818q13 0 23.5 -5t11.5 -19z" />
    <glyph glyph-name="bracketleft" unicode="&#xf05b;" horiz-adv-x="249" 
d="M176 -120h-145v708h144v-26h-87v-655h88v-27z" />
    <glyph glyph-name="backslash" unicode="&#xf05c;" horiz-adv-x="276" 
d="M264 0h-71l-193 583h78z" />
    <glyph glyph-name="bracketright" unicode="&#xf05d;" horiz-adv-x="249" 
d="M200 -119h-144v29h86v656h-86v26h144v-711z" />
    <glyph glyph-name="asciicircum" unicode="&#xf05e;" horiz-adv-x="385" 
d="M375 213h-58l-123 277l-123 -277h-58l155 342h52z" />
    <glyph glyph-name="underscore" unicode="&#xf05f;" horiz-adv-x="504" 
d="M504 -126h-504v55h504v-55z" />
    <glyph glyph-name="a" unicode="&#xf061;" horiz-adv-x="387" 
d="M370 111q0 -15 -9 -39t-18 -44.5t-18 -24t-28 -3.5h-266h-17q-13 2 -13 13q0 5 7 32t16 54q11 21 28 21h224q19 0 22.5 10t3.5 61q0 86 -23 122.5t-102 36.5l-64 4q-33 0 -56 15.5t-23 65.5q0 26 7.5 49.5t18.5 23.5q9 0 13 -8t10 -15t21 -10l50 -5l41 -2q91 0 115 -50.5
t24 -136.5q0 -59 -1.5 -85t-7.5 -76q32 0 38.5 -1t6.5 -8zM200 239q0 -37 -35 -37q-17 0 -27.5 9.5t-10.5 25.5t7 25.5t27 12.5q16 0 27.5 -9.5t11.5 -26.5z" />
    <glyph glyph-name="b" unicode="&#xf062;" 
d="M247 75q0 -20 -9 -49.5t-22 -29.5q-6 0 -8 7.5t-5.5 32.5l-6.5 46q-5 23 -14 23t-17 -14t-18 -37t-13 -31l-7 -13q-10 -10 -22 -10h-93q-18 0 -18 10l3 11l36 80q5 15 13.5 20t24.5 5h90q8 -1 16 0.5t8 14.5q-1 14 -3.5 33t-5.5 49q0 23 2.5 38t7.5 35l2 14
q0 17 -29.5 27t-57 26t-27.5 69q0 25 9 51t18 26q9 -3 13 -14t11.5 -19.5t28.5 -12.5q53 -16 66 -29t13 -37q0 -7 -1.5 -16t-5.5 -22t-9 -36t-5 -42q0 -37 5.5 -64t14 -61t12 -51t3.5 -30zM139 236q0 -37 -34 -37q-37 0 -37 37q0 13 9 24t26 11q16 0 26 -10t10 -25z" />
    <glyph glyph-name="c" unicode="&#xf063;" horiz-adv-x="387" 
d="M349 395q0 -17 -3.5 -28t-14.5 -19l-7 -5q-6 -3 -10.5 -9.5t-4.5 -14.5l1 -17l20 -141l8 -53l3 -35q0 -33 -21.5 -54.5t-34.5 -21.5q-7 0 -8.5 5t-3 15.5t-1.5 23.5v21v42t1 39l3 204h-180q-51 0 -72.5 10.5t-21.5 56.5q0 40 10.5 65t24.5 25q3 0 6 -7.5t4.5 -15
t16 -11.5t28.5 -4h195q33 0 47.5 -11.5t14.5 -59.5zM198 239q0 -37 -34 -37q-37 0 -37 37q0 13 9 24t26 11q16 0 26 -10t10 -25z" />
    <glyph glyph-name="d" unicode="&#xf064;" horiz-adv-x="443" 
d="M406 64q0 -23 -20.5 -44.5t-40.5 -21.5q-7 0 -7 10q0 15 2 48t2 51l-4 240h-239q-53 0 -68.5 16.5t-15.5 54.5q0 33 10 59.5t23 26.5q9 0 11 -17q0 -11 8.5 -14.5t22.5 -3.5h236q35 0 55 -11.5t20 -55.5q0 -25 -3.5 -36.5t-13 -18t-9.5 -23.5l6 -70l23 -160zM247 238
q0 -37 -35 -37q-17 0 -26 10t-9 25q0 14 8.5 26t27.5 12q14 0 24 -11t10 -25zM95 240l-7 -41l-1 -73v-18q0 -47 -10.5 -68t-24.5 -33.5t-28 -12.5q-5 1 -6 8t0 17l4 116q0 49 19.5 83t44.5 34q9 0 9 -12z" />
    <glyph glyph-name="e" unicode="&#xf065;" horiz-adv-x="221" 
d="M171 60q0 -37 -11.5 -50t-20.5 -13q-8 0 -11 9t-3 34v17l3 246q0 11 -5.5 18.5t-42.5 22t-55.5 34t-18.5 56.5q0 21 8 47t17 26q7 0 11 -10q9 -14 19.5 -22t34.5 -16.5t39 -20.5t17 -25.5t5 -62t3 -59.5l10 -195zM96 239q0 -37 -34 -37q-17 0 -27 10t-10 25
q0 19 10.5 28.5t24.5 9.5q13 0 24.5 -9t11.5 -27z" />
    <glyph glyph-name="f" unicode="&#xf066;" horiz-adv-x="249" 
d="M218 385q0 -22 -5.5 -45.5t-11.5 -23.5q-11 0 -23 5l-22 9q-6 -24 -6 -50q0 -19 3 -37.5t10 -44.5l9 -35q7 -25 8 -33t1 -23q0 -34 -15 -73.5t-29 -39.5q-12 0 -12 13l1 20q0 22 -7 48.5t-12 60.5t-5 57q0 71 32 140q-35 11 -53 31.5t-18 60.5q0 28 9 54.5t21 26.5
q8 0 12 -9q2 -15 14.5 -23.5t40.5 -18.5t43 -24t15 -46zM76 237q0 -38 -34 -38q-20 0 -29 11.5t-9 24.5q0 18 8.5 28t29.5 10q12 0 21.5 -8t12.5 -28z" />
    <glyph glyph-name="h" unicode="&#xf068;" horiz-adv-x="443" 
d="M419 221q0 -38 -2.5 -94t-21.5 -112q0 -4 -6.5 -9.5t-12.5 -5.5h-329q-15 0 -19.5 2.5t-4.5 10.5l-4 195q0 44 12 75t31 65q-24 11 -38.5 32.5t-14.5 46.5q0 27 9.5 55t22.5 28q8 0 12.5 -10.5t10.5 -18t31.5 -20.5t35.5 -28.5t10 -40.5q0 -33 -13 -59q-3 -3 -12 -3
l-29 9q-17 -18 -23.5 -39t-6.5 -53q0 -31 7 -74t12 -48q2 -5 10.5 -7t36.5 -2h252q8 0 11 3t4.5 18.5t1.5 30.5q0 77 -43 130.5t-92 53.5q-31 0 -45 -18.5t-25 -55.5l-14 -51q-5 -8 -11 -8q-10 1 -10 12q0 16 19 80t33.5 104t19.5 52.5t16 12.5q71 0 125 -63t54 -196z
M310 238q0 -35 -35 -35t-38 34q0 18 11 27t26 9q16 0 26 -10t10 -25z" />
    <glyph glyph-name="i" unicode="&#xf069;" horiz-adv-x="194" 
d="M150 373q0 -11 -1 -35t-1 -37q0 -15 -4 -33.5t-7.5 -32.5t-16.5 -14q-9 1 -9 15l3 46q0 31 -9.5 41.5t-42.5 22.5t-46 26t-13 50q0 23 7.5 53.5t20.5 30.5q8 0 11.5 -9.5t11.5 -16.5t30 -15q33 -9 49.5 -28t16.5 -64zM81 245q0 -30 -33 -35q-35 4 -35 33q-1 14 9.5 26
t25.5 12q12 0 22.5 -10.5t10.5 -25.5z" />
    <glyph glyph-name="j" unicode="&#xf06a;" horiz-adv-x="387" 
d="M208 236q0 -16 -7.5 -26t-27.5 -12q-19 0 -27.5 10.5t-8.5 25.5q0 17 9.5 27.5t27.5 10.5q18 -2 26 -13t8 -23zM359 -130q0 -25 -20 -51t-39 -26q-9 0 -10 9t-1 29v16l2 502h-231q-29 0 -47.5 11.5t-18.5 55.5q0 28 9 59.5t25 31.5q6 0 8 -6t2 -8q3 -16 15 -20t33 -4
l186 1q45 0 64.5 -11.5t19.5 -58.5q0 -22 -4.5 -34.5t-15.5 -19t-11 -23.5l2 -56l25 -301v-9l4 -48z" />
    <glyph glyph-name="k" unicode="&#xf06b;" horiz-adv-x="387" 
d="M353 173q0 -36 -5.5 -58t-30.5 -61l-20 -34l-8 -12q-6 -8 -19 -9t-24 -1h-199h-11h-28q-5 3 -7.5 4t-4.5 9q0 6 11 39.5t16.5 45.5t10.5 17t15 5h202q37 0 55 12t18 60q0 52 -21.5 101t-77.5 49l-114 9q-34 0 -59.5 13.5t-25.5 65.5q0 24 9 50t22 26q7 0 10.5 -12
t17.5 -20.5t59 -8.5q125 0 163.5 -29t38.5 -155zM205 238q0 -16 -8 -26.5t-28 -10.5q-16 0 -26 11t-10 26q3 35 36 35q18 0 27 -11t9 -24z" />
    <glyph glyph-name="l" unicode="&#xf06c;" horiz-adv-x="360" 
d="M324 324q0 -60 -13 -93t-39 -57l-50 -44q-32 -27 -41 -46.5t-21 -59.5q-6 -30 -37 -30q-15 0 -25.5 7t-10.5 23q0 24 20.5 54.5t56.5 55.5q71 43 93.5 65.5t22.5 61.5q0 25 -9 48t-24.5 29t-49.5 6h-132q-35 0 -47.5 15.5t-12.5 67.5q0 89 7 129t40 79q-8 11 -14 24
t-6 21q0 16 18 35t33 19q9 -4 20 -25.5t11 -34.5q0 -12 -9 -24l-26 -28q-19 -21 -26.5 -41t-7.5 -51q0 -39 12.5 -51.5t42.5 -12.5h62h59q49 0 76 -33.5t27 -108.5zM186 238q0 -17 -7.5 -28t-26.5 -11q-17 0 -27.5 9.5t-10.5 26.5q0 20 11 28.5t25 8.5t25 -10t11 -24z" />
    <glyph glyph-name="n" unicode="&#xf06e;" horiz-adv-x="443" 
d="M417 202q0 -42 -7.5 -84.5t-36.5 -98.5q-8 -11 -12.5 -15t-20.5 -4h-45h-172q-18 0 -20 12q0 8 8 27.5t22.5 49t28.5 30t23 0.5l199 1q7 20 7 49q0 74 -47 131.5t-117 57.5q-95 0 -132 -83t-37 -193l1 -35q0 -20 -7 -33.5t-22 -13.5q-10 0 -12.5 19t-2.5 42q0 77 21 137
t33 72l5 13q0 6 -4 12t-21.5 30t-24.5 38.5t-7 33.5q0 26 20.5 67t29.5 42q8 2 23.5 -26l38.5 -66.5t35 -38.5q15 0 36.5 35.5t28.5 54.5t18 19q28 0 70 -25.5t63.5 -71.5t29 -89t7.5 -96zM267 236q0 -34 -34 -37q-38 0 -38 36q0 19 11 28t25 9q15 0 25.5 -9.5t10.5 -26.5z
" />
    <glyph glyph-name="p" unicode="&#xf070;" horiz-adv-x="249" 
d="M210 97q0 -6 -2.5 -21t-8 -38.5t-9 -30.5t-14.5 -7h-155q-11 0 -18.5 2t-7.5 9l2 10l32 74q9 14 16.5 17t28.5 3h78q-11 44 -11 100v22t2 25l3 35l1 14q0 12 -7.5 19.5t-37 14.5t-51 26.5t-21.5 62.5q0 19 8 46.5t22 27.5q8 -3 13 -15t14 -19t39 -14.5t47.5 -20.5
t17.5 -42q0 -8 -2 -18t-6 -27.5l-8.5 -39t-4.5 -30.5q0 -21 1 -27t7 -32q15 -49 23.5 -82t8.5 -44zM107 238q0 -33 -35 -37q-37 0 -37 40q0 13 9 23t29 10q14 0 24 -11t10 -25z" />
    <glyph glyph-name="q" unicode="&#xf071;" horiz-adv-x="443" 
d="M402 198q0 -63 -10.5 -99t-55.5 -88l-6 -6q-3 -3 -14.5 -3.5t-23.5 -1.5h-223q-12 0 -16 1.5t-8.5 28.5t-7.5 86.5t-3 120.5q0 34 19 63t38 48q-23 0 -41.5 15.5t-18.5 51.5q0 38 10.5 64.5t22.5 26.5q3 0 10 -12q6 -18 18.5 -22t69.5 -4l96 1q80 0 112 -60.5t32 -210.5z
M375 159q0 45 -8.5 92t-26.5 68t-43.5 26t-91.5 5q-74 0 -99.5 -19.5t-25.5 -100.5q0 -37 1.5 -65t5.5 -40q0 -7 5.5 -8t35.5 -1h223q15 0 19.5 9t4.5 34zM260 233q0 -15 -10.5 -24.5t-25.5 -9.5q-18 0 -26.5 9.5t-10.5 25.5q0 13 8 25.5t30 12.5q13 0 24 -10t11 -29z" />
    <glyph glyph-name="t" unicode="&#xf074;" horiz-adv-x="387" 
d="M351 140q0 -17 -5 -36t-14 -38t-23 -38q-10 -19 -21 -23.5t-38 -4.5h-206q-18 0 -27.5 2t-9.5 12q0 12 7 35.5t15.5 41t15 21t28.5 3.5h220q17 0 22.5 8t5.5 44q0 91 -41 145t-153 54q-22 0 -39.5 -16.5t-17.5 -38.5q0 -15 15 -19l48 -4q22 0 28 -20.5t6 -39.5
q0 -18 -4 -27t-18 -9l-39 1q-26 0 -39.5 -6t-19 -9l-11.5 -6q-12 0 -12 12q2 6 4 8.5t5 4t3 10.5q-2 9 -4.5 26t-2.5 26q0 41 15 67.5t40 42.5q-19 10 -29 22t-10 44q0 25 8 50.5t21 25.5q7 0 9 -7q7 -13 20 -18t88 -15t117.5 -69t42.5 -262zM270 237q0 -21 -9 -29t-25 -8
q-17 0 -27.5 9.5t-10.5 25.5q0 37 39 37q14 0 23.5 -10.5t9.5 -24.5z" />
    <glyph glyph-name="v" unicode="&#xf076;" horiz-adv-x="387" 
d="M361 408l-6 -48q0 -10 -5.5 -16.5t-14.5 -6.5l-13 3q-36 11 -75 15q-1 -13 -7.5 -52.5l-13.5 -81.5q0 -6 11.5 -18.5t26.5 -26t31.5 -36.5t16.5 -60q0 -22 -4.5 -38.5t-8.5 -26.5t-16 -12.5t-29 -2.5h-189q-18 0 -23 1.5t-5 11.5t5 29.5t11 33t11 20t25 6.5h111
q17 0 17 9q0 6 -9.5 18.5t-21.5 24.5l-41 41q-4 3 -16.5 18.5t-15.5 40.5q0 46 -2.5 68t-40.5 29t-53 21.5t-15 40.5q0 35 8.5 62t20.5 27q7 0 11 -9t16.5 -17.5t25.5 -11.5q26 -11 35.5 -23.5t9.5 -48.5v-41q0 -38 20 -67t41 -29q18 0 24 38.5t10 79.5l8 84q0 15 3.5 31.5
t9.5 18.5q12 0 12 -10q9 -17 19 -26t38.5 -15t37.5 -17t9 -31zM113 180q0 -30 -34 -35q-33 4 -36 34q0 15 8.5 26t25.5 11q14 0 25 -9t11 -27z" />
    <glyph glyph-name="w" unicode="&#xf077;" horiz-adv-x="387" 
d="M359 245q0 -54 -14.5 -95t-59.5 -71l-78 -43l-35.5 -23.5t-22.5 -12.5q-6 0 -11.5 5.5t-5.5 13.5q0 27 31 53.5t80 55.5q58 30 74 51t16 50q0 10 -4.5 30.5t-15 45.5t-33 33t-54.5 8h-122q-49 0 -72.5 12t-23.5 60q0 24 11 56.5t25 32.5q9 0 9 -10q0 -18 16 -23.5
t38 -5.5l119 1q32 0 57 -9t43 -44t25.5 -79t7.5 -92zM229 236q0 -38 -34 -38q-38 0 -38 39q0 8 5 21.5t33 13.5q10 0 22 -10t12 -26zM91 -150q0 -20 -17 -39t-35 -19q-6 0 -9 13.5t-3 38.5l-3 286q0 48 7.5 93.5t35.5 45.5q11 0 11 -13l-4 -50l12 -242l4 -86z" />
    <glyph glyph-name="y" unicode="&#xf079;" horiz-adv-x="526" 
d="M497 385q0 -17 -9.5 -38.5t-35 -58t-57.5 -94.5t-48 -110l-17 -53q-3 -14 -13 -16l-51 -7q-86 -10 -187 -10h-6q-6 0 -10 6l-12 78l-9 61q-1 7 -5 38.5t-4 46.5q0 59 28 111q-55 28 -55 90q0 27 10.5 54t22.5 27q3 -2 6.5 -3.5t6.5 -9t10 -18t28 -19t35.5 -22.5t14.5 -46
q0 -15 -3.5 -31.5t-10.5 -36.5q-4 -4 -10 -4l-31 9q-7 -20 -11 -38t-4 -39q0 -69 36 -141q15 26 25.5 46l24.5 48l67 133q-32 29 -32 75q0 27 14 61t30 34q6 0 9 -7q0 -21 24.5 -40t38 -36t13.5 -47q0 -19 -11 -47.5t-15 -28.5q-5 0 -20 7.5t-29 15.5l-105 -211q79 0 177 16
q25 63 69 115q9 9 27 33t18 35q0 7 -6 13l-23 27q-15 15 -20.5 28.5t-5.5 26.5q0 33 23 65.5t36 32.5q12 0 12 -17q0 -11 4 -18.5t19.5 -28t21 -29.5t5.5 -28zM313 228q0 -13 -8 -23.5t-27 -12.5q-34 3 -37 35q2 16 10 26.5t28 10.5q11 0 22.5 -9.5t11.5 -26.5z" />
    <glyph glyph-name="z" unicode="&#xf07a;" horiz-adv-x="470" 
d="M428 143v-37q0 -58 -2.5 -82t-28.5 -24q-9 0 -11 11t-2 54l1 46q0 161 -19.5 197t-74.5 36l-125 -1q-29 0 -47.5 -14t-18.5 -67q0 -19 1.5 -29.5t7.5 -31.5l21 -82l3.5 -17.5t2.5 -25.5q0 -50 -23 -63t-64 -13l-33 2q-7 0 -7 11l12 76l4 17q3 8 12.5 10.5t29.5 4.5
q1 1 2 7l-1 7q-6 19 -7.5 32.5t-1.5 34.5q0 41 10 75t35 68q-24 2 -39.5 20.5t-15.5 53.5q0 24 10.5 55t23.5 31q5 0 8 -8q0 -15 12 -22t42 -7l61 -1l70 1q92 0 121.5 -53.5t29.5 -221.5zM279 235q0 -14 -9.5 -24.5t-26.5 -10.5q-35 0 -35 35q0 16 8 25.5t28 11.5
q14 0 24.5 -9.5t10.5 -27.5z" />
    <glyph glyph-name="braceleft" unicode="&#xf07b;" horiz-adv-x="480" 
d="M339 -165q-94 0 -123.5 43.5t-29.5 124.5q0 15 1 46.5t1 46.5q0 64 -15 104t-63 60q47 7 63 45.5t16 103.5q0 26 -1 53l-2 55q0 78 23.5 120t94.5 42q22 0 35 -2q-51 -13 -67.5 -53.5t-16.5 -109.5q0 -20 2 -61t2 -60q0 -59 -16 -93t-62 -40q46 -19 62 -59t16 -103
q0 -20 -2 -61t-2 -60q0 -60 17.5 -96t66.5 -46z" />
    <glyph glyph-name="bar" unicode="&#xf07c;" horiz-adv-x="126" 
d="M95 0h-63v583h63v-583z" />
    <glyph glyph-name="braceright" unicode="&#xf07d;" horiz-adv-x="480" 
d="M370 268q-48 -13 -64 -49t-16 -95q0 -26 2.5 -68t2.5 -49q0 -75 -30.5 -116t-122.5 -41q48 11 64 48t16 100q0 21 -2 70.5t-2 53.5q0 58 15 94.5t58 51.5q-42 14 -57 49.5t-15 93.5q0 21 2 71.5t2 54.5q0 63 -18.5 103t-70.5 53q97 0 127 -45.5t30 -130.5q0 -24 -1 -49
l-2 -49q0 -62 16.5 -99.5t65.5 -51.5z" />
    <glyph glyph-name="asciitilde" unicode="&#xf07e;" horiz-adv-x="543" 
d="M528 315q-36 -63 -74 -89.5t-78 -26.5q-35 0 -66.5 14t-49.5 23q-60 34 -99 34q-34 0 -58 -21t-56 -68l-37 49q33 58 71.5 82t79.5 24q29 0 59 -11l56 -26l58.5 -20t43.5 -9q27 0 52 17t50 59z" />
    <glyph glyph-name="Adieresis" unicode="&#xf080;" 
d="M227 443q0 -75 -26 -117.5t-75 -42.5q-46 0 -72.5 45t-26.5 115q0 77 27.5 120t72.5 43q55 0 77.5 -49t22.5 -114zM174 486q0 97 -47 97q-22 0 -34 -27t-12 -106t9.5 -110t36.5 -31q29 0 38 36.5t9 140.5z" />
    <glyph glyph-name="Aring" unicode="&#xf081;" 
d="M202 304q0 -10 -8 -10h-122q-8 0 -9.5 3t-1.5 9q1 3 4 5t18 4q17 0 21 10t4 32v178l-28 -17q-13 -9 -20 -4q-5 5 -2 12l42.5 38t29.5 28t15 9q11 0 13.5 -6t2.5 -22v-226q0 -26 10.5 -28.5t17.5 -4t11 -5.5z" />
    <glyph glyph-name="Ccedilla" unicode="&#xf082;" 
d="M225 353l-11 -29q-8 -20 -25.5 -25.5t-34.5 -5.5q-8 0 -40.5 4.5t-33.5 4.5l-18 -3l-17 -7q-4 -1 -7 2q-3 8 -3 14q0 33 17.5 57.5t52.5 57.5l26 23q15 14 27 31.5t12 38.5q0 35 -16 51t-36 16q-17 0 -30 -7.5t-13 -19.5q0 -14 13.5 -20t18.5 -13.5t5 -17.5
q0 -13 -10 -22t-20 -9q-16 0 -30 14t-14 39q0 30 23.5 54.5t63.5 24.5q36 0 67 -22.5t31 -62.5q0 -39 -23 -64.5t-58 -45.5t-47.5 -31.5t-18.5 -30.5l88 -5q13 0 23 3.5t21 12.5q5 7 12 4q5 -2 5 -11z" />
    <glyph glyph-name="Eacute" unicode="&#xf083;" 
d="M223 376q0 -43 -30 -67.5t-73 -24.5q-37 0 -60 15.5t-23 38.5q0 17 6.5 27.5t24.5 10.5q14 0 23 -9t9 -21l-3 -12q-5 -7 -5 -13q0 -15 24 -15q27 0 40.5 21t13.5 50q0 44 -23 56.5t-56 12.5q-10 2 -10 10t11 10q40 0 55.5 14.5t15.5 46.5t-13 45t-30 13q-24 0 -24 -17
l4 -7q8 -8 8 -20q0 -18 -10 -24t-24 -6q-10 0 -18.5 7.5t-8.5 26.5q0 24 22 41.5t58 17.5q33 0 59 -15.5t26 -52.5q0 -33 -19.5 -49t-39.5 -28q7 -1 19.5 -6t21 -11.5t19 -20t10.5 -45.5z" />
    <glyph glyph-name="Ntilde" unicode="&#xf084;" 
d="M233 410q0 -3 -1.5 -14t-4 -20t-9 -10.5t-31.5 -1.5v-24q0 -23 14 -27q15 -2 15 -9q1 -10 -8 -10h-101q-7 1 -5 10q1 8 17.5 10.5t16.5 21.5v28h-102q-6 0 -8 6q-1 6 17.5 40.5t35.5 84t21 87.5q0 9 5.5 11t34.5 2q19 0 19 -7q0 -31 -31 -91.5t-61 -104.5h69v73
q0 10 3 14l29 40q7 7 11 7q8 0 8 -10v-124q11 0 18 7l8 11q6 10 10 11q10 0 10 -11z" />
    <glyph glyph-name="Odieresis" unicode="&#xf085;" 
d="M223 396q0 -8 -1.5 -18.5t-6 -32.5t-27 -38t-36 -19.5t-33.5 -3.5q-39 0 -61 17.5t-22 41.5q0 18 9.5 26.5t21.5 8.5q13 0 20.5 -8.5t9.5 -20.5l-4 -24q0 -6 6.5 -11t18.5 -5q24 0 36 21t12 65q0 38 -10.5 56t-34.5 18q-14 0 -23 -7t-19 -21t-22 -13q-7 3 -7 19v10l8 123
q0 14 5 19t23 5l35 -5l34 -4l25 2l23 3q11 0 11 -13q0 -26 -29 -36.5t-67 -10.5l-34 1l-3 -65q10 10 25.5 15.5t32.5 5.5q44 0 64 -31t20 -70z" />
    <glyph glyph-name="Udieresis" unicode="&#xf086;" 
d="M228 393q0 -31 -12 -55q-4 -13 -16 -25q-6 -12 -26.5 -20.5t-39.5 -8.5q-58 0 -79.5 43t-21.5 98q0 69 26 125t81 56q26 0 46.5 -13.5t20.5 -32.5q0 -14 -7.5 -22.5t-21.5 -8.5q-11 0 -20 8.5t-9 28.5q0 16 -18 16q-22 0 -33 -33.5t-11 -89.5q17 11 30 16t28 5
q37 0 60 -26.5t23 -60.5zM175 385q0 29 -9 50t-35 21q-20 0 -31 -18t-11 -56q0 -29 8.5 -52.5t31.5 -23.5q20 0 33 18.5t13 60.5z" />
    <glyph glyph-name="aacute" unicode="&#xf087;" 
d="M219 576q0 -4 -3 -13.5t-7 -19.5l-20 -58q-15 -40 -25 -80.5t-10 -77.5t-35 -42q-16 0 -27.5 11.5t-8.5 31.5q0 16 12.5 43t30.5 60l62 111h-84q-7 0 -16.5 -0.5t-16.5 -9.5l-18 -26q-3 -5 -8 -3q-6 1 -6 20q0 32 8 54q0 15 19 15h131q12 0 17 -2.5t5 -13.5z" />
    <glyph glyph-name="agrave" unicode="&#xf088;" 
d="M229 376q0 -36 -25.5 -64.5t-73.5 -28.5q-43 0 -70.5 23t-27.5 61q0 26 14 48.5t36 37.5q-40 27 -40 72q0 36 25.5 58.5t62.5 22.5t62.5 -20t25.5 -59q0 -19 -12 -37t-30 -27q14 -7 27 -20t19.5 -30t6.5 -37zM175 529q0 26 -15.5 39.5t-30.5 13.5q-20 -2 -29.5 -14
t-9.5 -26q0 -31 62 -66q12 11 17.5 26t5.5 27zM180 357q0 23 -18.5 43.5t-56.5 36.5q-11 -11 -18 -28.5t-7 -33.5q0 -32 18 -47.5t37 -15.5t32 13t13 32z" />
    <glyph glyph-name="acircumflex" unicode="&#xf089;" 
d="M226 460q0 -39 -10 -81.5t-39 -70.5q-12 -10 -27.5 -17t-36.5 -7q-28 0 -47 12t-19 37q4 32 35 32q12 0 21 -9.5t9 -23.5l-2 -16q2 -8 11 -8q29 0 39 36.5t10 82.5q-25 -20 -59 -20q-44 0 -63 31t-19 67q0 42 25.5 71.5t68.5 29.5q44 0 73.5 -37t29.5 -109zM166 512
q0 27 -9.5 48t-34.5 21q-21 0 -30.5 -20t-9.5 -58q0 -32 9.5 -52.5t34.5 -20.5q25 3 32.5 24.5t7.5 57.5z" />
    <glyph glyph-name="ecircumflex" unicode="&#xf090;" 
d="M227 36q0 -76 -27.5 -118t-72.5 -42q-55 0 -77.5 50t-22.5 109q0 78 27.5 121t72.5 43t72.5 -40.5t27.5 -122.5zM174 41l-3 76q-3 19 -10 38t-29 19q-28 0 -39.5 -24.5t-11.5 -107.5q0 -141 43 -141q29 0 39.5 30t10.5 110z" />
    <glyph glyph-name="edieresis" unicode="&#xf091;" 
d="M202 -103q0 -10 -8 -10h-107q-8 0 -16 0.5t-8 3.5l-2 3v4q0 6 30 13q13 6 15 11.5t2 27.5v178l-28 -17q-8 -5 -14 -5q-5 0 -7 2t-2 4v6l45.5 41.5t29.5 27.5l15 6q9 0 11.5 -6t2.5 -21v-226q0 -7 1 -16.5t13 -14.5q9 -2 18 -5t9 -7z" />
    <glyph glyph-name="iacute" unicode="&#xf092;" 
d="M225 -54l-12 -31q-8 -17 -23.5 -23t-38.5 -6l-72 8q-14 0 -22 -5l-13 -5q-6 2 -7.5 7.5t-1.5 8.5q0 35 18.5 61t51.5 54l26 24q17 15 28 30.5t11 38.5q0 32 -15 49t-39 17q-13 0 -27 -6.5t-14 -20.5q0 -7 5 -12.5t12.5 -8.5t13.5 -10t6 -20q0 -11 -9.5 -20.5t-23.5 -9.5
q-21 0 -31 16.5t-10 36.5q0 33 25 56t61 23q34 0 66.5 -21t32.5 -65q0 -35 -20.5 -60t-59.5 -48t-50 -34t-17 -28q19 0 53.5 -2.5t38.5 -2.5q22 0 40 15l4 3q4 1 5 1t5 1q4 -3 3 -11z" />
    <glyph glyph-name="igrave" unicode="&#xf093;" 
d="M223 -32q0 -43 -30 -67.5t-73 -24.5q-30 0 -57 13t-27 48q0 17 9.5 25t19.5 8q34 0 34 -36q-2 -6 -3 -11t-3 -7l-1 -3q0 -6 8.5 -9.5t15.5 -3.5q26 0 39 19.5t13 49.5q0 29 -14.5 49t-48.5 20q-15 0 -20.5 2t-5.5 7q0 13 10 13q33 0 53 10t20 48q0 37 -14 47.5t-32 10.5
q-19 0 -19 -12q0 -5 1 -6.5t5.5 -7t4.5 -18.5q0 -14 -10.5 -22t-23.5 -8q-10 0 -19.5 8t-9.5 26q0 27 22 44t60 17q42 0 64 -20t22 -51t-17.5 -47.5t-40.5 -26.5q5 -1 16 -5.5t21.5 -11.5t20.5 -25t10 -42z" />
    <glyph glyph-name="icircumflex" unicode="&#xf094;" 
d="M233 2q0 -14 -5 -28t-11.5 -15.5t-30.5 -1.5v-29q0 -21 14 -21q16 -5 16 -13q-1 -7 -13 -7h-92q-7 0 -9 6q2 8 3 9l22 8q6 3 7.5 7t1.5 12v29h-101q-10 0 -8 9q0 4 5.5 14.5l17.5 34.5t29 72t21 86l1 12q1 1 8 2h41q9 0 9 -7q0 -29 -30 -89.5t-62 -107.5h69v74q0 10 3 14
l31 40l4 4l5 2q8 0 8 -9v-124q11 0 18 6.5t11 14t9 7.5q8 0 8 -11z" />
    <glyph glyph-name="idieresis" unicode="&#xf095;" 
d="M223 -13q0 -8 -1.5 -18.5t-6 -33t-34.5 -41.5q-11 -9 -29 -14t-33 -5q-39 0 -61 17.5t-22 41.5q0 29 29 34q13 2 22.5 -8.5t9.5 -20.5q1 -7 -0.5 -12t-3.5 -13q2 -14 25 -14q24 0 36 21t12 65q0 38 -10.5 56t-34.5 18q-14 0 -24 -7.5t-18 -20.5t-18 -13q-11 3 -11 29
l8 123q0 24 28 24q6 0 36 -4.5t35 -4.5q11 0 21.5 1.5l24.5 3.5q11 0 11 -13q0 -26 -29 -36.5t-67 -10.5l-34 1l-3 -65q23 21 58 21q44 0 64 -30.5t20 -70.5z" />
    <glyph glyph-name="ntilde" unicode="&#xf096;" 
d="M228 -13q0 -26 -9 -48.5t-20 -33.5t-27 -19.5t-38 -8.5q-56 0 -78.5 42t-22.5 100q0 80 29 129.5t74 49.5q28 0 49.5 -12.5t21.5 -32.5q0 -16 -8.5 -23.5t-17.5 -7.5q-15 0 -23.5 9.5t-8.5 26.5q0 16 -16 16q-22 0 -34 -32.5t-12 -88.5q13 10 28 15.5t30 5.5
q34 0 58.5 -24.5t24.5 -62.5zM175 -22q0 30 -8.5 51t-35.5 21q-20 0 -31 -18t-11 -56q0 -23 7.5 -49.5t32.5 -26.5t35.5 24t10.5 54z" />
    <glyph glyph-name="oacute" unicode="&#xf097;" 
d="M219 167q0 -4 -4 -16t-6 -17l-20 -58q-15 -40 -25 -80.5t-10 -77.5q-2 -17 -6 -27t-29 -15q-25 0 -30 15t-5 25q0 18 12 45t30 61l62 111h-84q-25 0 -33 -10l-18 -27q-3 -5 -9 -3q-5 4 -5 21q0 32 8 54q0 15 19 15h131q12 0 17 -2.5t5 -13.5z" />
    <glyph glyph-name="ograve" unicode="&#xf098;" 
d="M229 -30q0 -39 -26.5 -66.5t-70.5 -27.5q-46 0 -73 24t-27 60q0 26 13.5 47.5t36.5 39.5q-18 11 -29 30.5t-11 40.5q0 38 27.5 59.5t60.5 21.5q36 0 62 -21t26 -57q0 -21 -11 -38t-31 -27l15 -10l6 -6q9 -4 20.5 -22.5t11.5 -47.5zM175 122q0 28 -16 40.5t-30 12.5
q-21 0 -30 -12.5t-9 -27.5q0 -31 62 -66q12 10 17.5 25t5.5 28zM180 -49q0 26 -22.5 46.5t-52.5 32.5q-11 -11 -18 -28.5t-7 -33.5q0 -31 17 -47t36 -16q21 0 34 13t13 33z" />
    <glyph glyph-name="ocircumflex" unicode="&#xf099;" 
d="M226 52q0 -28 -5 -57t-11.5 -46t-15 -29t-19.5 -23q-26 -21 -58 -21t-51 14t-19 38q0 13 10.5 21.5t22.5 8.5q14 0 22.5 -10.5t8.5 -22.5q-3 -16 -2 -19q3 -5 12 -5q29 0 39 36.5t10 82.5q-25 -20 -59 -20q-43 0 -62.5 30t-19.5 67q0 43 25.5 72.5t68.5 29.5
q40 0 71.5 -34t31.5 -113zM166 105q0 29 -9.5 48.5t-31.5 19.5q-25 0 -34.5 -18.5t-9.5 -56.5q0 -34 11 -54.5t34 -20.5q26 0 33 23t7 59z" />
    <glyph glyph-name="uacute" unicode="&#xf09c;" horiz-adv-x="553" 
d="M201 303q0 -9 -9 -9h-122q-11 0 -12 10q2 11 17 11q21 0 26.5 10.5t5.5 31.5v178l-29 -17l-13 -5q-10 0 -10 10l42 38.5l34 32.5q2 7 13 7q10 0 12.5 -5.5t2.5 -22.5v-226q0 -18 5 -24t21 -8.5t16 -11.5zM415 592q0 -12 -9 -34l-244 -547q-7 -15 -22 -15q-8 0 -13.5 5.5
t-5.5 12.5q-1 5 2.5 14t4.5 11l240 538q12 26 25 29q19 0 22 -14zM498 84q0 -39 -28 -66t-75 -27q-39 0 -61 16t-22 38q0 16 6.5 25.5t23.5 12.5q15 0 24 -9t9 -21l-8 -25q0 -15 24 -15q27 0 40.5 22t13.5 49q0 35 -17 52t-49 17l-20 2q-4 3 -4 9q2 6 8 8t26 2
q22 0 35.5 17.5t13.5 44.5q0 24 -11.5 39.5t-35.5 15.5q-7 0 -12 -4q-3 0 -5 -4t-3 -8l4 -7q8 -8 8 -21q0 -15 -10.5 -22t-19.5 -7q-18 0 -25 10t-7 23t13 36t69 23q42 0 63 -19t21 -45q0 -31 -14 -46.5t-45 -33.5q8 -2 19.5 -6.5t20.5 -9t19.5 -23t10.5 -43.5z" />
    <glyph glyph-name="ugrave" unicode="&#xf09d;" horiz-adv-x="553" 
d="M224 356q0 -4 -2.5 -11.5t-10.5 -23.5t-22.5 -22t-35.5 -6q-10 0 -30 2.5t-45 6.5q-5 0 -12 -2t-14 -5l-4 -2q-2 -1 -8 -1q-7 4 -7 16q0 40 23.5 67t46.5 48l26 23q20 18 29.5 33t9.5 44q0 25 -15.5 42.5t-36.5 17.5q-14 0 -28 -6t-14 -24q0 -10 13 -17q12 -4 17.5 -13.5
t5.5 -16.5q0 -15 -11.5 -23.5t-20.5 -8.5q-14 0 -28 13t-14 40q0 31 24 55t64 24t69 -24t29 -64q0 -23 -12.5 -45t-25 -32t-31.5 -21t-37.5 -24.5t-26.5 -21.5t-15 -25l89 -5q13 0 23 3.5t18 10.5t14 7q7 -4 6 -9zM416 580l-9 -22l-242 -544q-5 -11 -9.5 -15.5t-16.5 -4.5
q-16 2 -18 16q0 10 8 28l241 539q7 18 13 23.5t16 5.5q12 -2 15.5 -9.5t1.5 -16.5zM498 87q0 -39 -28 -66t-75 -27q-34 0 -58.5 14.5t-24.5 39.5q0 16 7 26.5t25 10.5q16 0 23.5 -9t7.5 -20l-3 -12q-3 -7 -5 -13q0 -15 24 -15q28 0 41 21.5t13 49.5q0 44 -23 56t-56 12
q-10 0 -11 8q0 11 12 12q32 0 51.5 11t19.5 51q0 27 -12.5 41.5t-30.5 14.5q-24 0 -24 -17l4 -7q8 -8 8 -20q0 -17 -11.5 -23.5t-22.5 -6.5q-10 0 -19 7.5t-9 25.5q0 24 21.5 42t59.5 18t61.5 -17.5t23.5 -46.5q0 -12 -7 -36.5t-52 -42.5q5 -2 12 -4t22.5 -10.5t25.5 -25.5
t10 -42z" />
    <glyph glyph-name="ucircumflex" unicode="&#xf09e;" horiz-adv-x="996" 
d="M871 29q0 -20 -12 -32t-30 -12t-31 12t-13 31t13 31t31 12q17 0 29.5 -11.5t12.5 -30.5zM210 29q0 -20 -12 -32t-31 -12q-16 0 -29.5 11.5t-13.5 28.5q0 20 12 33t32 13t31 -14t11 -28zM540 27q0 -18 -11.5 -30.5t-31.5 -12.5q-19 0 -31.5 12.5t-12.5 28.5t12.5 30.5
t32.5 14.5t31 -15t11 -28z" />
    <glyph glyph-name="udieresis" unicode="&#xf09f;" 
d="M242 242q-1 -14 -10.5 -17.5t-31.5 -3.5h-155q-14 0 -22.5 3.5t-9.5 16.5q1 12 9 16t23 4h165q14 0 22 -3.5t10 -15.5z" />
    <glyph glyph-name="sterling" unicode="&#xf0a3;" horiz-adv-x="443" 
d="M407 57q0 -12 -20 -31.5t-33 -24.5t-26 -8.5t-34 -3.5q-11 0 -27.5 2.5t-64.5 13.5t-63 11q-23 0 -49 -6l-40 -9l-10 -1q-13 0 -11 12q-1 7 6.5 14t29 25t41 47.5t19.5 72.5q0 39 -17 72h-68q-21 0 -21 16q0 15 20 15h54q-14 23 -21 47t-7 49q0 69 44 111t119 42
q55 0 107.5 -24.5t52.5 -68.5q0 -33 -23 -52.5t-54 -14.5q-12 0 -12 13l5 33q0 41 -22.5 65.5t-52.5 24.5q-25 0 -50.5 -18t-25.5 -61q0 -16 3.5 -30t20.5 -44.5t28 -73.5h74q23 0 23 -16q-1 -14 -20 -14h-72q0 -70 -28 -110.5t-82 -80.5l-1 -4l3 -5l39 14q22 9 43.5 15
t40.5 6q20 0 36 -4.5t30 -10.5t25.5 -9.5t26.5 -3.5q17 0 28 3.5t19 9.5l8 4q9 0 9 -9z" />
    <glyph glyph-name="section" unicode="&#xf0a4;" horiz-adv-x="728" 
d="M678 100q0 -34 -3 -46.5t-19.5 -33t-77.5 -20.5h-345v298h67v-232h267q44 0 44 45v354h67v-365zM495 165h-67v189q0 29 -11 36.5t-33 7.5h-267v-398h-67v465h346q61 0 80 -24t19 -75v-201z" />
    <glyph glyph-name="germandbls" unicode="&#xf0a7;" horiz-adv-x="415" 
d="M368 172q0 -42 -20.5 -72t-53.5 -60q30 -22 45 -51.5t15 -60.5q0 -57 -46 -97.5t-126 -40.5q-65 0 -108.5 26.5t-43.5 64.5q0 32 26.5 51t50.5 19q13 0 13 -14l-6 -44q0 -28 19 -52.5t54 -24.5q34 0 57.5 20.5t23.5 54.5q0 27 -16 46.5t-84 53.5l-47 24
q-45 23 -70.5 48.5t-25.5 77.5q0 43 24 77t51 55q-28 21 -44 49.5t-16 61.5q0 54 42.5 96.5t125.5 42.5q62 0 108.5 -24.5t46.5 -74.5q0 -25 -23.5 -43t-46.5 -18q-18 0 -18 13q0 2 4 21t4 23q0 27 -20 52.5t-58 25.5q-33 0 -56 -22t-23 -54q0 -36 28.5 -58.5t121 -63
t92.5 -128.5zM307 123q0 22 -15.5 37.5t-47.5 34.5l-123 63q-13 -8 -24.5 -25t-11.5 -39q0 -20 14 -39.5t51 -38l72 -35.5t50 -26q16 10 25.5 28.5t9.5 39.5z" />
    <glyph glyph-name="trademark" unicode="&#xf0aa;" horiz-adv-x="609" 
d="M536 38l-37 -38l-192 193l-188 -193l-37 42l188 189l-182 184l38 37l182 -184l50 50l10 11l120 121l37 -37l-181 -183z" />
    <glyph glyph-name="infinity" unicode="&#xf0b0;" horiz-adv-x="387" 
d="M346 525q0 -67 -44.5 -110.5t-107.5 -43.5q-64 0 -108.5 45.5t-44.5 106.5q0 38 18.5 72.5t52.5 58.5t83 24q61 0 106 -44t45 -109zM308 520q0 47 -33 82t-81 35q-46 0 -79.5 -32.5t-33.5 -83.5q0 -40 31 -75t83 -35l26 3q38 9 62.5 38.5t24.5 67.5z" />
    <glyph glyph-name="summation" unicode="&#xf0b7;" horiz-adv-x="350" 
d="M300 300q0 -52 -36.5 -88.5t-88.5 -36.5t-88.5 36.5t-36.5 88.5t36.5 88.5t88.5 36.5t88.5 -36.5t36.5 -88.5z" />
    <glyph glyph-name="integral" unicode="&#xf0ba;" horiz-adv-x="609" 
d="M357 387q0 -21 -14 -37t-39 -16q-24 0 -38 17t-14 36q0 29 16 40t35 14q28 0 41 -16.5t13 -37.5zM544 206h-473v53h473v-53zM357 73q0 -21 -14 -37t-39 -16q-24 0 -38 17t-14 36q0 29 16 40t35 14q28 0 41 -16.5t13 -37.5z" />
    <glyph glyph-name="ordmasculine" unicode="&#xf0bc;" horiz-adv-x="553" 
d="M202 303q-2 -9 -16 -9h-112q-10 0 -13 5q-1 4 1 9q3 3 20.5 6t21.5 17t4 26v178l-33 -20q-11 -5 -16 -1q-6 5 0 13l44 40t29.5 27.5t12.5 6.5q11 0 13.5 -6t2.5 -22v-226q0 -14 2 -21.5t11 -8.5t15.5 -2.5t9.5 -5.5t3 -6zM428 587q0 -5 -10 -29l-243 -543q-6 -10 -11 -15
t-13 -4q-17 4 -19 18q2 12 8 25l240 538q8 15 13.5 22t16.5 7q7 0 12.5 -5.5t5.5 -13.5zM509 119q0 -32 -8 -38.5t-38 -9.5v-20q0 -18 2 -24.5t16 -6.5q12 0 12 -12q-1 -8 -13 -8h-82q-12 0 -16 1.5t-4 7.5q0 13 18 13q9 0 13 6t4 15l-1 31h-78q-7 0 -17 1t-12 3l-1 7l2 6
q36 62 59 146l9.5 48t6.5 19t9 1h9h27q9 0 9 -7q0 -27 -25.5 -82.5t-66.5 -114.5h69v78q0 4 8.5 15.5l14.5 19.5l10.5 14.5t10.5 6.5q3 0 5 -2.5t3 -6.5v-125q7 -1 14 3.5t10.5 10.5l6 10.5t4.5 5.5q10 3 10 -12z" />
    <glyph glyph-name="Omega" unicode="&#xf0bd;" horiz-adv-x="553" 
d="M200 306q4 -12 -15 -12h-112q-15 0 -13 8q0 9 19 12t24 12t5 31v178l-28 -17l-14 -5q-3 -1 -5.5 1.5l-3.5 3.5q-1 4 2 9l44 40t29.5 27.5t12.5 6.5q11 0 13.5 -6t2.5 -22v-226q0 -26 12 -29.5l19 -5.5t8 -6zM417 586q-1 -8 -5 -17t-5 -11l-242 -543q-3 -5 -7 -12.5
t-16 -7.5q-21 0 -21 17q0 11 8 27l241 538q8 17 13.5 23t15.5 6q7 0 12.5 -5.5t5.5 -14.5zM500 62l-11 -32q-7 -17 -22.5 -23.5t-37.5 -6.5q-10 0 -30 2.5t-45 6.5q-10 0 -20 -5l-14 -6h-4q-2 3 -4 7t-2 10q0 41 19.5 63.5t50.5 52.5l26 23q12 12 25.5 27.5t13.5 41.5
q0 35 -17 51t-36 16q-16 0 -29 -7t-13 -21t13.5 -19.5t18.5 -13t5 -17.5q0 -15 -10.5 -23t-19.5 -8q-19 0 -32 15t-13 37q0 33 24.5 56.5t63.5 23.5q19 0 58.5 -15t39.5 -73q0 -22 -11 -43.5t-30 -35.5l-57 -38q-25 -17 -34.5 -27.5t-14.5 -24.5l88 -5q13 0 23 3.5t16.5 9
t10 7t6.5 0.5q2 -1 5 -9z" />
    <glyph glyph-name="ae" unicode="&#xf0be;" horiz-adv-x="553" 
d="M221 381q0 -48 -32 -72t-71 -24q-29 0 -55.5 12t-26.5 47q0 13 6.5 23t23.5 10q18 0 25 -8.5t7 -21.5q-3 -9 -5 -16.5t-2 -10.5q0 -7 8.5 -10t15.5 -3q23 0 38 18t15 52q0 44 -22.5 56.5t-56.5 12.5q-8 0 -10 10q1 8 11 10q41 0 56 15t15 46q0 25 -9.5 41.5t-33.5 16.5
q-9 0 -16 -4t-7 -11l4 -9q8 -8 8 -19q0 -18 -10 -24.5t-25 -6.5q-11 0 -19 8t-8 24q0 32 24 46.5t57 14.5q38 0 61.5 -17.5t23.5 -47.5q0 -36 -18.5 -51t-40.5 -28q10 -2 18 -5.5t18 -8.5t21.5 -23t11.5 -42zM427 592q0 -13 -9 -34l-241 -539q-9 -18 -20 -22q-11 -1 -17 3
t-7 13q0 7 1.5 12.5t5.5 14.5l240 537q7 14 14 21.5t16 7.5q16 0 17 -14zM508 118l-7 -33q-3 -8 -10 -11t-30 -5q0 -33 2.5 -40t15.5 -10q12 0 12 -9q0 -8 -4.5 -9t-31.5 -1h-61l-13 1q-4 4 -4 8l1 6q1 1 11.5 4t12.5 5q6 2 8 17v32h-78q-12 0 -21 1.5t-9 6.5q1 7 13.5 26
t32 75.5t27.5 107.5q0 9 8 11t42 2q9 0 9 -7q0 -31 -31 -91.5t-61 -104.5h68v73q0 10 4 14l34 44l7 3q7 -6 7 -10v-124q11 0 18 6l11 17q1 4 7 6q10 0 10 -11z" />
    <glyph glyph-name="questiondown" unicode="&#xf0c0;" horiz-adv-x="415" 
d="M250 -101q0 -20 -11.5 -30t-24.5 -10t-25.5 9t-12.5 29q0 16 9.5 27t26.5 11q19 0 28.5 -12.5t9.5 -23.5zM249 -214q-2 -20 -10.5 -27.5t-23.5 -11.5q-20 0 -30.5 11t-10.5 29q0 15 10.5 26.5t27.5 11.5q37 0 37 -39z" />
    <glyph glyph-name="exclamdown" unicode="&#xf0c1;" horiz-adv-x="415" 
d="M338 -102q0 -29 -30 -34q-17 0 -25 10.5t-8 22.5q0 16 10 24t21 8q14 0 23 -9t9 -22zM246 -102q0 -31 -30 -34q-12 0 -22.5 7.5t-10.5 25.5q0 16 10 24t21 8q14 0 23 -9t9 -22zM151 -102q0 -29 -30 -34q-17 2 -25 11t-8 22q0 16 10 24t21 8q14 0 23 -9t9 -22zM338 -199
q0 -29 -30 -34q-17 0 -25 10.5t-8 22.5q0 16 10 24t21 8q14 0 23 -9t9 -22zM197 -199q0 -29 -30 -34q-17 0 -25 10.5t-8 22.5q0 16 10 24t21 8q14 0 23 -9t9 -22z" />
    <glyph glyph-name="logicalnot" unicode="&#xf0c2;" horiz-adv-x="415" 
d="M240 -124h-150v46h150v-46zM332 -104q-2 -12 -6.5 -19.5t-22.5 -10.5q-15 0 -23.5 9.5t-8.5 22.5q3 29 31 32q11 0 20.5 -8.5t9.5 -25.5zM334 -203q0 -13 -8.5 -22.5t-21.5 -9.5q-15 0 -23 9t-8 24q-1 10 5.5 20t24.5 10q12 0 21.5 -7.5t9.5 -23.5z" />
    <glyph glyph-name="radical" unicode="&#xf0c3;" horiz-adv-x="415" 
d="M332 -103q0 -16 -9 -24t-24 -8q-12 0 -20.5 9.5t-8.5 21.5q0 16 9.5 24.5t19.5 8.5q20 0 26.5 -11t6.5 -21zM238 -126h-64v-23q1 -8 11 -20.5t13 -28.5q-2 -16 -9 -25t-25 -12q-15 0 -25.5 9.5t-12.5 26.5q0 17 11.5 28.5t13.5 20.5v24h-61v47h148v-47zM332 -205
q0 -16 -9 -24t-24 -8q-12 0 -20.5 9.5t-8.5 21.5q0 16 9.5 24.5t19.5 8.5q20 0 26.5 -11t6.5 -21z" />
    <glyph glyph-name="florin" unicode="&#xf0c4;" horiz-adv-x="415" 
d="M250 -101q0 -20 -11.5 -30t-24.5 -10t-25.5 9t-12.5 29q0 16 9.5 27t26.5 11q19 0 28.5 -12.5t9.5 -23.5z" />
    <glyph glyph-name="approxequal" unicode="&#xf0c5;" horiz-adv-x="415" 
d="M302 -105q0 -15 -9.5 -25.5t-26.5 -10.5q-18 0 -27.5 10.5t-9.5 25.5q0 19 11 27.5t25 8.5q37 0 37 -36zM196 -106q0 -13 -8 -24.5t-27 -11.5q-16 0 -27 10t-11 26q0 15 10.5 26.5t26.5 11.5q15 0 25.5 -11.5t10.5 -26.5z" />
    <glyph glyph-name="Delta" unicode="&#xf0c6;" horiz-adv-x="415" 
d="M297 -104q0 -14 -9.5 -24.5t-25.5 -10.5q-20 0 -29 12t-9 25t9 24.5t27 11.5t27.5 -10.5t9.5 -27.5zM192 -101q0 -16 -8.5 -27t-27.5 -11q-14 0 -25.5 9.5t-11.5 25.5q0 18 11.5 28.5t25.5 10.5q13 0 24.5 -10t11.5 -26zM243 -194q-7 -33 -38 -33q-15 0 -25 10t-10 25
q0 14 10 26t27 12q15 0 25.5 -10.5t10.5 -29.5z" />
    <glyph glyph-name="guillemotleft" unicode="&#xf0c7;" horiz-adv-x="415" 
d="M291 -128h-168v50h168v-50z" />
    <glyph glyph-name="guillemotright" unicode="&#xf0c8;" horiz-adv-x="415" 
d="M299 -129h-75v-21q0 -10 7.5 -16t12.5 -13t5 -21q0 -15 -11 -25t-27 -10q-35 0 -35 37q0 7 2 15t12 13.5t10 20.5v21h-70v47h169v-48z" />
    <glyph glyph-name="ellipsis" unicode="&#xf0c9;" horiz-adv-x="415" 
d="M142 545q0 -16 -11.5 -25.5t-25.5 -9.5q-19 3 -27.5 13.5t-8.5 22.5q0 15 9.5 26.5t25.5 11.5q19 0 28.5 -11t9.5 -28z" />
    <glyph glyph-name="nonbreakingspace" unicode="&#xf0ca;" horiz-adv-x="415" 
d="M-4 549q0 -13 -9 -25t-26 -12q-11 0 -20 4.5t-13 12.5t-6 21q0 17 11 26t26 9t26 -10t11 -26z" />
    <glyph glyph-name="Agrave" unicode="&#xf0cb;" horiz-adv-x="415" 
d="M153 -105q0 -17 -11 -26t-26 -9q-17 0 -26 10t-11 26q0 18 10 27t28 11q18 0 28 -11t8 -28zM250 -160q0 -16 -10.5 -26.5t-27.5 -10.5q-16 0 -26.5 11.5t-10.5 27.5q0 18 12 27.5t26 9.5q21 -3 29 -14t8 -25zM348 -214q0 -15 -10.5 -26.5t-27.5 -11.5q-13 0 -25 9.5
t-12 28.5q0 17 11.5 27.5t25.5 10.5q16 0 27 -10t11 -28z" />
    <glyph glyph-name="Atilde" unicode="&#xf0cc;" horiz-adv-x="72" 
d="M72 216h-72v71h27h45v-71z" />
    <glyph glyph-name="Otilde" unicode="&#xf0cd;" horiz-adv-x="45" 
d="M45 -193h-45v127h11h34v-127z" />
    <glyph glyph-name="OE" unicode="&#xf0ce;" 
d="M240 456l-7 -23l-27 -70q-3 -7 -7.5 -8.5t-14.5 -1.5h-147q-17 0 -19 7l1 6l33 93q3 9 24 9h140q14 0 19 -1.5t5 -10.5z" />
    <glyph glyph-name="oe" unicode="&#xf0cf;" horiz-adv-x="194" 
d="M194 596h-194v95h112h82v-95z" />
    <glyph glyph-name="endash" unicode="&#xf0d0;" horiz-adv-x="280" 
d="M167 0h-54v633h54v-633z" />
    <glyph glyph-name="emdash" unicode="&#xf0d1;" horiz-adv-x="609" 
d="M488 557h-72v71h27h45v-71z" />
    <glyph glyph-name="quotedblleft" unicode="&#xf0d2;" horiz-adv-x="609" 
d="M132 556h-72v70h28h44v-70z" />
    <glyph glyph-name="quotedblright" unicode="&#xf0d3;" horiz-adv-x="387" 
d="M229 321l-16 -15l-14 -13l-44 -45l-71 72l70 74zM229 59l-18 -19l-12 -12l-42 -43l-72 73l69 74z" />
    <glyph glyph-name="daggerdbl" unicode="&#xf0e0;" horiz-adv-x="443" 
d="M405 358q0 -19 -10.5 -51t-16.5 -32q-4 -4 -22.5 8t-32.5 23l-26 -53l26 -26q34 -32 55.5 -66.5t21.5 -73.5q0 -29 -11 -59.5t-23 -30.5q-13 -5 -14 8q-13 50 -46 90t-127 111l-79 61q-9 -9 -14 -22t-5 -26q0 -28 9 -40.5t32.5 -37.5t31.5 -40.5t8 -38.5q0 -40 -22 -51
t-52 -11h-44q-18 0 -18 10q0 2 7.5 17t7.5 17l-8 37q-5 25 -6 31.5t-1 27.5q0 28 8.5 61t44.5 85q-22 28 -32.5 54.5t-10.5 53.5q0 39 16 74.5t28 39.5q11 1 11 -13q15 -52 34.5 -83.5t82.5 -87.5l37 -31l31 -25l26 57q-17 15 -28 34.5t-11 41.5q0 33 24 67.5t42 37.5
q14 -2 8 -17l-1 -11q-2 -7 2 -14.5t20.5 -26.5t31.5 -38.5t15 -40.5z" />
    <glyph glyph-name="periodcentered" unicode="&#xf0e1;" horiz-adv-x="387" 
d="M370 111q0 -15 -9 -39t-18 -44.5t-18 -24t-28 -3.5h-266h-17q-13 2 -13 13q0 5 7 32t16 54q11 21 28 21h224q19 0 22.5 10t3.5 62q0 85 -23 121.5t-102 36.5l-64 4q-33 0 -56 15.5t-23 65.5q0 13 6 43.5t18 31.5q11 0 15 -9t10 -16t21 -10l50 -5l41 -2q91 0 115 -50.5
t24 -136.5q0 -59 -1.5 -84t-7.5 -77q18 0 32.5 -0.5t12.5 -8.5z" />
    <glyph glyph-name="quotesinglbase" unicode="&#xf0e2;" 
d="M247 75q0 -20 -9 -49.5t-22 -29.5q-6 0 -8 7.5t-5.5 32.5l-6.5 46q-5 23 -14 23t-13.5 -7.5t-15 -31l-19.5 -43.5l-7 -13q-10 -10 -22 -10h-93q-18 0 -18 10l3 11l36 80q5 15 13.5 20t24.5 5h90l18 1q6 1 6 14q-2 18 -5.5 47t-3.5 35q0 23 2.5 38t7.5 35l2 14
q0 15 -14 21q-45 16 -72.5 32t-27.5 69q0 25 8 50.5t16 27.5q7 1 13 -7q7 -19 14.5 -27.5t28.5 -12.5q53 -16 66 -29t13 -37q0 -7 -1.5 -16t-5.5 -22t-9 -36t-5 -42q0 -37 5.5 -64t14 -61t12 -51t3.5 -30z" />
    <glyph glyph-name="quotedblbase" unicode="&#xf0e3;" horiz-adv-x="387" 
d="M349 395q0 -17 -3.5 -28t-14.5 -19l-7 -5q-5 -3 -10 -10t-5 -15l1 -17l20 -140l8 -53q1 -7 1.5 -18t1.5 -17q0 -33 -21.5 -54.5t-34.5 -21.5q-4 0 -7 4t-4.5 14.5t-1.5 24v21.5v42.5t1 39.5l3 204h-180q-51 0 -72.5 10.5t-21.5 56.5q0 40 10.5 65t24.5 25q3 0 6 -7.5
t4.5 -15t16 -11.5t28.5 -4h195q33 0 47.5 -11.5t14.5 -59.5z" />
    <glyph glyph-name="perthousand" unicode="&#xf0e4;" horiz-adv-x="443" 
d="M406 64q0 -22 -20.5 -44.5t-38.5 -22.5q-11 2 -9 11q0 15 2 48t2 51l-4 240h-239q-53 0 -68.5 16.5t-15.5 54.5q0 33 10 59.5t23 26.5q9 0 11 -14q0 -12 9.5 -16.5t21.5 -4.5h236q35 0 55 -11.5t20 -55.5q0 -25 -3.5 -36.5t-13 -18t-9.5 -23.5l6 -70l23 -160q0 -4 1 -15
t1 -15zM95 240l-7 -41l-1 -74v-18q0 -46 -10.5 -67t-24.5 -33.5t-28 -12.5q-6 3 -6 25l4 115q0 49 19.5 83.5t44.5 34.5q9 0 9 -12z" />
    <glyph glyph-name="Acircumflex" unicode="&#xf0e5;" horiz-adv-x="221" 
d="M171 60q0 -37 -11.5 -50t-20.5 -13q-8 0 -11 9t-3 34v17l3 246q0 11 -5.5 18.5t-42.5 22t-55.5 34t-18.5 56.5q0 19 7.5 46t14.5 28q9 3 18.5 -12.5t18.5 -22.5t32 -15t38 -20t17 -25.5t5 -62t3 -59.5l11 -216v-15z" />
    <glyph glyph-name="Ecircumflex" unicode="&#xf0e6;" horiz-adv-x="194" 
d="M163 383q0 -17 -5.5 -42t-11.5 -25q-7 1 -13.5 2.5t-31.5 11.5q-6 -24 -6 -50q0 -24 2 -34.5t11 -48.5l9 -35q7 -26 8 -33t1 -22q0 -34 -15 -73.5t-29 -39.5q-3 1 -7.5 3t-4.5 10l1 20q0 22 -7 49t-12 60t-5 56q0 72 32 141q-35 11 -53 31.5t-18 60.5q0 28 9 54.5
t21 26.5q8 0 12 -9q2 -15 14.5 -23.5t41 -18.5t43 -24.5t14.5 -47.5z" />
    <glyph glyph-name="Aacute" unicode="&#xf0e7;" horiz-adv-x="443" 
d="M401 80q0 -28 -17 -54.5t-32 -29.5q-10 2 -13.5 21.5t-3.5 49.5q1 24 1 28v107v30v15v14q0 18 -1 43.5t-7 38.5q-4 2 -33.5 3t-35.5 1h-142q-30 -19 -36.5 -50t-6.5 -116l4 -94q0 -29 -3 -44t-13.5 -25.5t-17 -16t-14.5 -3.5q-4 1 -5 10.5t-1 23.5v11l-1 146
q0 52 11.5 89t46.5 68q-30 10 -41.5 28.5t-11.5 46.5q0 21 9.5 53t25.5 32q5 -1 6.5 -8t4 -14.5t12 -11.5t38.5 -4h204q26 0 42 -11.5t16 -56.5q0 -18 -6 -32t-17 -22l25 -163l9 -56z" />
    <glyph glyph-name="Edieresis" unicode="&#xf0e8;" horiz-adv-x="443" 
d="M419 221q0 -38 -2.5 -94t-21.5 -112q0 -4 -6.5 -9.5t-12.5 -5.5h-329q-15 0 -19.5 2.5t-4.5 10.5l-4 195q0 44 12 75t31 65q-24 11 -38.5 32.5t-14.5 46.5q0 27 9.5 55t22.5 28q7 0 12 -12q8 -13 12 -18.5t30 -18.5t36 -28.5t10 -40.5q0 -33 -13 -59q-3 -3 -12 -3l-29 9
q-17 -18 -23.5 -39t-6.5 -53q0 -31 7 -74t11 -47.5t13 -7t35 -2.5h252q8 0 11 3t4.5 18.5t1.5 30.5q0 77 -43 130.5t-92 53.5q-31 0 -45 -18.5t-25 -55.5l-14 -51q-5 -8 -11 -8q-10 0 -10 12q0 16 19 80t33.5 104t19.5 52.5t16 12.5q71 0 125 -63t54 -196z" />
    <glyph glyph-name="Egrave" unicode="&#xf0e9;" horiz-adv-x="194" 
d="M150 368q0 -11 -1 -36t-1 -39q0 -11 -2.5 -30t-7 -35.5t-18.5 -16.5q-9 4 -9 15l3 48q0 33 -9.5 43.5t-39 21.5t-46 22t-16.5 58q0 20 7 53.5t21 33.5q8 0 12 -10.5t11.5 -16.5t29.5 -15q37 -9 51.5 -33t14.5 -63z" />
    <glyph glyph-name="Iacute" unicode="&#xf0ea;" horiz-adv-x="387" 
d="M359 -130q0 -25 -20 -51t-39 -26q-9 0 -10 9t-1 29v16l2 502h-231q-29 0 -47.5 11.5t-18.5 55.5q0 28 9 59.5t25 31.5q6 0 8 -6t2 -8q3 -16 15 -20t33 -4l186 1q45 0 64.5 -11.5t19.5 -58.5q0 -22 -4.5 -34.5t-15.5 -19t-11 -23.5l2 -56l25 -301v-9l4 -48z" />
    <glyph glyph-name="Icircumflex" unicode="&#xf0eb;" horiz-adv-x="387" 
d="M353 173q0 -36 -5.5 -58t-30.5 -61l-20 -34l-8 -12q-6 -8 -19 -9t-24 -1h-199h-36q-7 3 -9.5 3.5t-3.5 4t-2 5.5q0 6 11 39.5t16.5 45.5t10.5 17t15 5h202q37 0 55 12t18 60q0 52 -21.5 101t-77.5 49l-114 9q-34 0 -59.5 13.5t-25.5 65.5q0 24 9 50t22 26q7 0 10.5 -12
t17.5 -20.5t59 -8.5q125 0 163.5 -29t38.5 -155z" />
    <glyph glyph-name="Idieresis" unicode="&#xf0ec;" horiz-adv-x="360" 
d="M324 323q0 -59 -13 -92.5t-39 -56.5l-50 -44q-31 -28 -43 -54t-18.5 -54t-37.5 -28q-15 0 -25.5 7t-10.5 23q0 24 20.5 54.5t56.5 55.5q116 70 116 126q0 25 -9 48.5t-24.5 29.5t-49.5 6h-132q-35 0 -47.5 15.5t-12.5 67.5q0 89 7 129t40 79q-8 11 -14 24t-6 21
q0 16 18 35t33 19q9 -4 20 -26t11 -34t-9 -24l-26 -28q-19 -21 -26.5 -41t-7.5 -51q0 -39 12.5 -51.5t42.5 -12.5h62h59q51 0 77 -34t26 -109z" />
    <glyph glyph-name="Igrave" unicode="&#xf0ed;" horiz-adv-x="443" 
d="M397 118l-1 -62v-13q0 -24 -3.5 -33.5t-16.5 -9.5h-329h-5q-7 1 -9 10.5t-2 26.5v157q0 49 12 86.5t43 75.5q-23 2 -41 19.5t-18 54.5q0 27 10 50.5t22 23.5q7 0 11 -9q0 -10 7.5 -19t20.5 -9l17 -1h147q42 0 71 -17t40 -52t17.5 -96.5t6.5 -182.5zM370 145
q0 132 -26 171.5t-76 39.5h-150q-28 -20 -35 -47t-7 -80q0 -33 1.5 -66t6.5 -43q0 -8 36 -8l230 -1q14 0 17 6t3 28z" />
    <glyph glyph-name="Oacute" unicode="&#xf0ee;" horiz-adv-x="443" 
d="M417 202q0 -42 -7.5 -84.5t-24 -75t-23.5 -37.5t-22 -5h-41h-172q-22 0 -24 12q0 8 8 27.5t33 71.5q6 9 41 9h199q7 20 7 49q0 74 -47 131.5t-117 57.5q-95 0 -132 -83t-37 -193l1 -35q0 -20 -7 -33.5t-22 -13.5q-10 0 -12.5 19t-2.5 42q0 77 20.5 135.5t33.5 74.5l5 12
q0 6 -4 12t-21.5 30t-24.5 38.5t-7 33.5q0 27 20.5 67.5t29.5 42.5l11 -3l52.5 -90t33.5 -39q15 0 36.5 35.5t28.5 54.5t18 19q28 0 70 -25.5t63.5 -71.5t29 -89t7.5 -96z" />
    <glyph glyph-name="Ocircumflex" unicode="&#xf0ef;" horiz-adv-x="194" 
d="M153 380q0 -17 -10 -38t-22.5 -43.5t-21 -49.5t-8.5 -53l1 -37l14 -182l5 -53l2 -43q0 -30 -21 -60t-39 -30q-5 0 -7.5 9t-1.5 16l3 362q0 37 4.5 50t34.5 58q13 22 13 26q0 10 -8 16t-32 20.5t-35.5 26.5t-11.5 37q0 19 9 45.5t20 43.5q4 9 17 9q8 -5 10 -10.5
t5.5 -11.5t23.5 -21.5t38 -33t18 -53.5z" />
    <glyph glyph-name="apple" unicode="&#xf0f0;" horiz-adv-x="249" 
d="M210 97q0 -6 -2.5 -21t-8 -38.5t-9 -30.5t-14.5 -7h-155q-9 0 -16 1.5t-10 5.5q0 10 2 14l32 74q9 14 16.5 17t28.5 3h78q-11 44 -11 100v22t2 25l3 35l1 14q0 12 -7.5 19.5t-37 14.5t-51 26.5t-21.5 62.5q0 19 8 46.5t22 27.5q3 -1 5.5 -2t7.5 -13t14 -19t39 -14.5
t47.5 -20.5t17.5 -42q0 -8 -2 -18t-6 -27.5l-8.5 -39t-4.5 -30.5q0 -21 1 -27t7 -32q15 -49 23.5 -82t8.5 -44z" />
    <glyph glyph-name="Ograve" unicode="&#xf0f1;" horiz-adv-x="443" 
d="M402 198q0 -63 -10.5 -99t-55.5 -88l-6 -6q-3 -3 -14.5 -3.5t-23.5 -1.5h-223q-12 0 -16 1.5t-8.5 28.5t-7.5 86.5t-3 120.5q0 34 19 63t38 48q-23 0 -41.5 15.5t-18.5 51.5q0 38 10.5 64.5t22.5 26.5q3 0 10 -12q6 -18 18.5 -22t69.5 -4l96 1q80 0 112 -60.5t32 -210.5z
M375 159q0 45 -8.5 92t-26.5 68t-43.5 26t-91.5 5q-74 0 -99.5 -19.5t-25.5 -100.5q0 -37 1.5 -65t5.5 -40q6 -9 41 -9h223q15 0 19.5 9t4.5 34z" />
    <glyph glyph-name="Uacute" unicode="&#xf0f2;" horiz-adv-x="415" 
d="M384 383q0 -13 -4 -24l-31 -77l-17 -68q-30 -130 -30 -157q-3 -21 -18 -32t-42.5 -27l-58.5 -35l-136 -85l-5 -3q-9 -6 -12.5 -1.5t-4.5 32t-1 33.5v34q2 25 28 42t39.5 25t23.5 13q-31 87 -31 184q0 39 1.5 53.5t6.5 43.5q-47 10 -60.5 29.5t-13.5 55.5q0 34 9.5 61
t23.5 27q3 -2 6 -5t3 -5q3 -14 15 -22t32 -13q36 -12 49 -27.5t13 -63.5q0 -21 -2 -35t-10 -14q-10 0 -22 1.5t-18 2.5q-4 -23 -4 -52q0 -50 13.5 -100t34.5 -93q48 25 79.5 46.5t39.5 41.5q0 6 14 40t29 67q6 18 6 27q0 11 -11 14q-40 22 -57.5 45t-17.5 55q0 33 15 61.5
t27 28.5q8 0 11 -10q1 -13 9.5 -22.5t23.5 -19.5q24 -12 39.5 -30t15.5 -42z" />
    <glyph glyph-name="Ucircumflex" unicode="&#xf0f3;" horiz-adv-x="387" 
d="M351 -149q0 -22 -18 -41t-31 -19q-9 0 -11 14t-2 66l9 385q0 60 -31.5 81.5t-169.5 21.5q-16 0 -30.5 -13.5t-14.5 -38.5q0 -20 14.5 -35.5t52.5 -15.5q40 0 50.5 -21t10.5 -62q0 -20 -19 -24q-72 0 -93 -4t-31.5 -12t-15 -11t-7.5 -3q-13 0 -9 11q0 3 7.5 14l11.5 17
l-1 7q-15 35 -15 74q0 37 13.5 68t33.5 52q-18 10 -26.5 30t-8.5 42q0 27 9.5 51.5t20.5 24.5q2 -2 5 -3.5t6.5 -12t17 -15.5t55.5 -5l58 -4q93 -11 117 -53.5t24 -162.5l11 -254z" />
    <glyph glyph-name="Ugrave" unicode="&#xf0f4;" horiz-adv-x="387" 
d="M351 140q0 -17 -5 -36t-14 -38t-23 -38q-10 -19 -21 -23.5t-38 -4.5h-206q-18 0 -27.5 2t-9.5 12q0 12 7 35.5t15.5 41t15 21t28.5 3.5h220q17 0 22.5 8t5.5 44q0 91 -41 145t-153 54q-22 0 -39.5 -16.5t-17.5 -38.5q0 -15 15 -19l48 -4q22 0 28 -20.5t6 -39.5
q0 -18 -4 -27t-18 -9l-39 1q-26 0 -39.5 -6t-19 -9l-11.5 -6q-12 0 -12 12q1 4 3 6.5t5.5 5t3.5 11.5q-1 2 -4 21.5t-3 30.5q0 41 15 67.5t40 42.5q-19 10 -29 22t-10 44q0 25 8 50.5t21 25.5q7 0 9 -7q7 -13 20 -18t88 -15t117.5 -69t42.5 -262z" />
    <glyph glyph-name="dotlessi" unicode="&#xf0f5;" horiz-adv-x="387" 
d="M359 378q0 -25 -14.5 -52.5t-20.5 -27.5l-4 -1q-5 0 -17.5 9t-21.5 17l-178 -213l15 -121l7 -63l3 -30l1 -12q0 -37 -21 -65.5t-34 -28.5q-6 0 -8.5 3.5t-2.5 17.5l-13 344q0 34 1.5 46.5t10.5 35.5q14 28 22 47.5t8 24.5q0 13 -9 22t-30 23q-18 8 -27 22.5t-9 35.5
q0 23 10.5 52.5t23.5 42.5l8 3q6 0 9 -9q0 -11 7.5 -18t30 -23.5t37 -35.5t14.5 -46q0 -18 -7.5 -35.5t-29.5 -44.5q-7 -7 -17.5 -27t-10.5 -46q0 -21 1 -36t8 -42l160 194q-14 14 -22.5 27.5t-8.5 34.5q0 25 21 63t35 38q4 0 5.5 -1.5t5.5 -8.5q0 -17 18.5 -38.5t31 -38.5
t12.5 -39z" />
    <glyph glyph-name="circumflex" unicode="&#xf0f6;" horiz-adv-x="387" 
d="M361 408q0 -9 -1.5 -21.5t-5.5 -27.5q0 -22 -19 -22l-13 3q-36 11 -75 15q-1 -10 -9 -60l-12 -74q0 -6 12 -18l28 -27.5t31 -37t15 -58.5q0 -22 -4.5 -38.5t-8.5 -26.5t-16 -12.5t-29 -2.5h-189q-18 0 -23 1.5t-5 11.5t5 29.5t12.5 36t12 20t22.5 3.5h111q17 0 17 7
q0 8 -10.5 22t-20.5 24l-41 41q-4 3 -16.5 18.5t-15.5 40.5q0 46 -2.5 67.5t-40.5 28.5t-53 21.5t-15 40.5q0 35 8.5 62t20.5 27q7 0 11 -9t16.5 -17.5t25.5 -11.5q26 -11 35.5 -23.5t9.5 -48.5v-41q0 -37 20 -66t41 -29q15 0 21.5 29t12.5 88l8 84q0 15 3.5 31.5t9.5 18.5
q7 1 16 -14q6 -15 15 -22.5t38 -14t38 -17.5t9 -31z" />
    <glyph glyph-name="tilde" unicode="&#xf0f7;" horiz-adv-x="387" 
d="M359 245q0 -54 -14.5 -95t-59.5 -71l-78 -43l-35.5 -23.5t-22.5 -12.5q-6 0 -11.5 5.5t-5.5 13.5q0 27 31 53.5t80 55.5q58 30 74 51t16 50q0 10 -4.5 30.5t-15 45.5t-33 33t-54.5 8h-122q-49 0 -72.5 12t-23.5 60q0 24 11 56.5t25 32.5q9 0 9 -10q0 -18 16 -23.5
t38 -5.5l119 1q32 0 57 -9t43 -44t25.5 -79t7.5 -92zM91 -150q0 -20 -17 -39t-35 -19q-6 0 -9 13.5t-3 38.5l-3 286q0 48 7.5 93.5t35.5 45.5q11 0 11 -13l-4 -50l12 -242l4 -86z" />
    <glyph glyph-name="macron" unicode="&#xf0f8;" horiz-adv-x="360" 
d="M321 105l-1 -59q0 -17 -12.5 -31.5t-20.5 -14.5q-11 0 -13.5 9t-2.5 53l2 149q0 91 -12.5 112t-68.5 21h-112q-32 0 -56.5 13t-24.5 60q0 21 10 54t26 33q6 0 9 -8q4 -28 52 -28l88 2q14 0 29.5 -0.5t43.5 -6.5t44 -62.5t16 -132.5z" />
    <glyph glyph-name="breve" unicode="&#xf0f9;" horiz-adv-x="526" 
d="M497 385q0 -17 -9.5 -38.5t-35 -58t-57.5 -94.5t-48 -110l-17 -53q-5 -15 -13 -16l-51 -7q-86 -10 -187 -10h-9q-6 2 -7 6l-12 78l-9 61q-1 7 -5 38.5t-4 46.5q0 59 28 111q-55 28 -55 90q0 27 10.5 54t22.5 27q3 -2 6.5 -3.5t6.5 -9t10 -18t28 -19t35.5 -22.5t14.5 -46
q0 -15 -3.5 -31.5t-10.5 -34.5q-4 -6 -10 -6l-31 9q-7 -20 -11 -38t-4 -39q0 -69 36 -141q15 26 25.5 46l24.5 48l67 133q-32 29 -32 75q0 27 14 61t30 34q6 0 9 -7q0 -21 24.5 -40t38 -36t13.5 -47q0 -19 -11 -47.5t-15 -28.5q-5 0 -20 7.5t-29 15.5l-105 -211q79 0 177 16
q25 63 69 115q9 9 27 33t18 35q0 7 -6 13l-23 27q-15 15 -20.5 28.5t-5.5 26.5q0 33 23 65.5t36 32.5q12 0 12 -17q0 -11 4 -18.5t19.5 -28t21 -29.5t5.5 -28z" />
    <glyph glyph-name="dotaccent" unicode="&#xf0fa;" horiz-adv-x="470" 
d="M430 142q0 -78 -2.5 -110t-30.5 -32q-9 0 -11 11t-2 54l1 46q0 161 -19.5 197t-74.5 36l-125 -1q-28 0 -44.5 -12t-21.5 -69q0 -19 1.5 -28.5t7.5 -31.5l21 -83l3.5 -17.5t2.5 -25.5q0 -50 -23 -63t-64 -13q-8 0 -18.5 0.5t-14.5 1.5q-7 0 -7 11l12 76l4 17q2 6 13.5 10
t27.5 4q3 3 3 10q-10 38 -10 73q0 40 10 74t35 68q-24 2 -39.5 20.5t-15.5 53.5q0 24 10.5 55t23.5 31q5 0 8 -8q0 -15 12 -22t42 -7l61 -1l70 1q92 0 121.5 -53.5t29.5 -220.5z" />
    <glyph glyph-name="hungarumlaut" unicode="&#xf0fd;" horiz-adv-x="406" 
d="M375 448l-164 -152v108h-70v-404h-86v490h156v110z" />
    <glyph glyph-name="ogonek" unicode="&#xf0fe;" horiz-adv-x="406" 
d="M351 0h-86v404h-70v-108l-164 152l164 152v-110h156v-490z" />
  </font>
</defs>
</svg>
